<?xml version="1.0" encoding="UTF-8" standalone="no"?>
<!DOCTYPE svg PUBLIC "-//W3C//DTD SVG 1.1//EN"
 "http://www.w3.org/Graphics/SVG/1.1/DTD/svg11.dtd">
<!-- Generated by graphviz version 7.0.2 (0)
 -->
<!-- Title: lib/Database/src/Auth.cpp Pages: 1 -->
<svg width="914pt" height="247pt"
 viewBox="0.00 0.00 913.50 247.00" xmlns="http://www.w3.org/2000/svg" xmlns:xlink="http://www.w3.org/1999/xlink">
<g id="graph0" class="graph" transform="scale(1 1) rotate(0) translate(4 243)">
<title>lib/Database/src/Auth.cpp</title>
<!-- Node1 -->
<g id="node1" class="node">
<title>Node1</title>
<g id="a_node1"><a xlink:title=" ">
<polygon fill="#999999" stroke="#666666" points="701.5,-239 560.5,-239 560.5,-220 701.5,-220 701.5,-239"/>
<text text-anchor="middle" x="631" y="-227" font-family="Helvetica,sans-Serif" font-size="10.00">lib/Database/src/Auth.cpp</text>
</a>
</g>
</g>
<!-- Node2 -->
<g id="node2" class="node">
<title>Node2</title>
<g id="a_node2"><a xlink:href="Database_8h.html" target="_top" xlink:title=" ">
<polygon fill="white" stroke="#666666" points="438,-184 366,-184 366,-165 438,-165 438,-184"/>
<text text-anchor="middle" x="402" y="-172" font-family="Helvetica,sans-Serif" font-size="10.00">Database.h</text>
</a>
</g>
</g>
<!-- Node1&#45;&gt;Node2 -->
<g id="edge1" class="edge">
<title>Node1&#45;&gt;Node2</title>
<path fill="none" stroke="#63b8ff" d="M592.15,-219.51C552.76,-210.39 491.75,-196.27 449.5,-186.49"/>
<polygon fill="#63b8ff" stroke="#63b8ff" points="450.39,-183.11 439.86,-184.26 448.81,-189.93 450.39,-183.11"/>
</g>
<!-- Node4 -->
<g id="node4" class="node">
<title>Node4</title>
<g id="a_node4"><a xlink:title=" ">
<polygon fill="#e0e0e0" stroke="#999999" points="292,-129 168,-129 168,-110 292,-110 292,-129"/>
<text text-anchor="middle" x="230" y="-117" font-family="Helvetica,sans-Serif" font-size="10.00">Firebase_ESP_Client.h</text>
</a>
</g>
</g>
<!-- Node1&#45;&gt;Node4 -->
<g id="edge17" class="edge">
<title>Node1&#45;&gt;Node4</title>
<path fill="none" stroke="#63b8ff" d="M560.08,-222.92C503.93,-217.09 424.07,-205.66 357,-184 319.23,-171.8 278.74,-149.83 253.88,-135.21"/>
<polygon fill="#63b8ff" stroke="#63b8ff" points="255.92,-132.35 245.54,-130.21 252.33,-138.35 255.92,-132.35"/>
</g>
<!-- Node6 -->
<g id="node6" class="node">
<title>Node6</title>
<g id="a_node6"><a xlink:title=" ">
<polygon fill="#e0e0e0" stroke="#999999" points="607.5,-19 544.5,-19 544.5,0 607.5,0 607.5,-19"/>
<text text-anchor="middle" x="576" y="-7" font-family="Helvetica,sans-Serif" font-size="10.00">Arduino.h</text>
</a>
</g>
</g>
<!-- Node1&#45;&gt;Node6 -->
<g id="edge15" class="edge">
<title>Node1&#45;&gt;Node6</title>
<path fill="none" stroke="#63b8ff" d="M618.36,-219.5C608.19,-211.47 594.55,-198.72 588,-184 565.14,-132.61 569.19,-64.15 573.1,-30.67"/>
<polygon fill="#63b8ff" stroke="#63b8ff" points="576.56,-31.17 574.39,-20.8 569.62,-30.27 576.56,-31.17"/>
</g>
<!-- Node14 -->
<g id="node14" class="node">
<title>Node14</title>
<g id="a_node14"><a xlink:title=" ">
<polygon fill="#e0e0e0" stroke="#999999" points="664.5,-184 597.5,-184 597.5,-165 664.5,-165 664.5,-184"/>
<text text-anchor="middle" x="631" y="-172" font-family="Helvetica,sans-Serif" font-size="10.00">EEPROM.h</text>
</a>
</g>
</g>
<!-- Node1&#45;&gt;Node14 -->
<g id="edge16" class="edge">
<title>Node1&#45;&gt;Node14</title>
<path fill="none" stroke="#63b8ff" d="M631,-219.75C631,-213.27 631,-204.16 631,-195.9"/>
<polygon fill="#63b8ff" stroke="#63b8ff" points="634.5,-195.96 631,-185.96 627.5,-195.96 634.5,-195.96"/>
</g>
<!-- Node15 -->
<g id="node15" class="node">
<title>Node15</title>
<g id="a_node15"><a xlink:title=" ">
<polygon fill="#e0e0e0" stroke="#999999" points="805.5,-184 682.5,-184 682.5,-165 805.5,-165 805.5,-184"/>
<text text-anchor="middle" x="744" y="-172" font-family="Helvetica,sans-Serif" font-size="10.00">addons/TokenHelper.h</text>
</a>
</g>
</g>
<!-- Node1&#45;&gt;Node15 -->
<g id="edge18" class="edge">
<title>Node1&#45;&gt;Node15</title>
<path fill="none" stroke="#63b8ff" d="M650.17,-219.51C667.89,-211.2 694.48,-198.73 714.83,-189.18"/>
<polygon fill="#63b8ff" stroke="#63b8ff" points="716.18,-192.42 723.74,-185 713.2,-186.08 716.18,-192.42"/>
</g>
<!-- Node16 -->
<g id="node16" class="node">
<title>Node16</title>
<g id="a_node16"><a xlink:href="DeviceInfo_8h.html" target="_top" xlink:title=" ">
<polygon fill="white" stroke="#666666" points="774,-74 696,-74 696,-55 774,-55 774,-74"/>
<text text-anchor="middle" x="735" y="-62" font-family="Helvetica,sans-Serif" font-size="10.00">DeviceInfo.h</text>
</a>
</g>
</g>
<!-- Node1&#45;&gt;Node16 -->
<g id="edge19" class="edge">
<title>Node1&#45;&gt;Node16</title>
<path fill="none" stroke="#63b8ff" d="M701.93,-220.31C747.21,-213.45 799.96,-201.87 814,-184 841.69,-148.77 790.57,-104.02 758.36,-80.9"/>
<polygon fill="#63b8ff" stroke="#63b8ff" points="760.53,-78.14 750.32,-75.31 756.53,-83.89 760.53,-78.14"/>
</g>
<!-- Node17 -->
<g id="node17" class="node">
<title>Node17</title>
<g id="a_node17"><a xlink:title=" ">
<polygon fill="#e0e0e0" stroke="#999999" points="905.5,-184 862.5,-184 862.5,-165 905.5,-165 905.5,-184"/>
<text text-anchor="middle" x="884" y="-172" font-family="Helvetica,sans-Serif" font-size="10.00">env.h</text>
</a>
</g>
</g>
<!-- Node1&#45;&gt;Node17 -->
<g id="edge21" class="edge">
<title>Node1&#45;&gt;Node17</title>
<path fill="none" stroke="#63b8ff" d="M676.8,-219.52C720.78,-210.79 789.04,-197 848,-184 849.16,-183.74 850.34,-183.48 851.53,-183.21"/>
<polygon fill="#63b8ff" stroke="#63b8ff" points="851.89,-186.72 860.85,-181.07 850.32,-179.9 851.89,-186.72"/>
</g>
<!-- Node3 -->
<g id="node3" class="node">
<title>Node3</title>
<g id="a_node3"><a xlink:title=" ">
<polygon fill="#e0e0e0" stroke="#999999" points="374,-129 310,-129 310,-110 374,-110 374,-129"/>
<text text-anchor="middle" x="342" y="-117" font-family="Helvetica,sans-Serif" font-size="10.00">WString.h</text>
</a>
</g>
</g>
<!-- Node2&#45;&gt;Node3 -->
<g id="edge2" class="edge">
<title>Node2&#45;&gt;Node3</title>
<path fill="none" stroke="#63b8ff" d="M391.82,-164.51C383.24,-156.93 370.73,-145.88 360.4,-136.75"/>
<polygon fill="#63b8ff" stroke="#63b8ff" points="362.97,-134.36 353.16,-130.36 358.34,-139.6 362.97,-134.36"/>
</g>
<!-- Node2&#45;&gt;Node4 -->
<g id="edge3" class="edge">
<title>Node2&#45;&gt;Node4</title>
<path fill="none" stroke="#63b8ff" d="M372.82,-164.51C344.44,-155.76 301.12,-142.42 269.63,-132.71"/>
<polygon fill="#63b8ff" stroke="#63b8ff" points="271.07,-129.49 260.48,-129.89 269.01,-136.18 271.07,-129.49"/>
</g>
<!-- Node5 -->
<g id="node5" class="node">
<title>Node5</title>
<g id="a_node5"><a xlink:href="Sensor_8h.html" target="_top" xlink:title=" ">
<polygon fill="white" stroke="#666666" points="403,-74 345,-74 345,-55 403,-55 403,-74"/>
<text text-anchor="middle" x="374" y="-62" font-family="Helvetica,sans-Serif" font-size="10.00">Sensor.h</text>
</a>
</g>
</g>
<!-- Node2&#45;&gt;Node5 -->
<g id="edge4" class="edge">
<title>Node2&#45;&gt;Node5</title>
<path fill="none" stroke="#63b8ff" d="M399.71,-164.66C395.26,-147.5 385.34,-109.26 379.21,-85.6"/>
<polygon fill="#63b8ff" stroke="#63b8ff" points="382.6,-84.73 376.7,-75.93 375.82,-86.48 382.6,-84.73"/>
</g>
<!-- Node12 -->
<g id="node12" class="node">
<title>Node12</title>
<g id="a_node12"><a xlink:href="SensorManager_8h.html" target="_top" xlink:title=" ">
<polygon fill="white" stroke="#666666" points="531.5,-129 430.5,-129 430.5,-110 531.5,-110 531.5,-129"/>
<text text-anchor="middle" x="481" y="-117" font-family="Helvetica,sans-Serif" font-size="10.00">SensorManager.h</text>
</a>
</g>
</g>
<!-- Node2&#45;&gt;Node12 -->
<g id="edge11" class="edge">
<title>Node2&#45;&gt;Node12</title>
<path fill="none" stroke="#63b8ff" d="M415.4,-164.51C427.16,-156.62 444.51,-144.98 458.41,-135.65"/>
<polygon fill="#63b8ff" stroke="#63b8ff" points="460.19,-138.68 466.54,-130.2 456.29,-132.87 460.19,-138.68"/>
</g>
<!-- Node5&#45;&gt;Node6 -->
<g id="edge5" class="edge">
<title>Node5&#45;&gt;Node6</title>
<path fill="none" stroke="#63b8ff" d="M403.37,-55.79C437.53,-46.83 494.21,-31.96 533.25,-21.72"/>
<polygon fill="#63b8ff" stroke="#63b8ff" points="534.01,-25.14 542.8,-19.21 532.23,-18.36 534.01,-25.14"/>
</g>
<!-- Node7 -->
<g id="node7" class="node">
<title>Node7</title>
<g id="a_node7"><a xlink:title=" ">
<polygon fill="#e0e0e0" stroke="#999999" points="78,-19 0,-19 0,0 78,0 78,-19"/>
<text text-anchor="middle" x="39" y="-7" font-family="Helvetica,sans-Serif" font-size="10.00">MAX30105.h</text>
</a>
</g>
</g>
<!-- Node5&#45;&gt;Node7 -->
<g id="edge6" class="edge">
<title>Node5&#45;&gt;Node7</title>
<path fill="none" stroke="#63b8ff" d="M344.63,-59.16C294.52,-51.71 189,-35.81 89.45,-19.38"/>
<polygon fill="#63b8ff" stroke="#63b8ff" points="90.21,-15.96 79.77,-17.77 89.07,-22.86 90.21,-15.96"/>
</g>
<!-- Node8 -->
<g id="node8" class="node">
<title>Node8</title>
<g id="a_node8"><a xlink:title=" ">
<polygon fill="#e0e0e0" stroke="#999999" points="212,-19 96,-19 96,0 212,0 212,-19"/>
<text text-anchor="middle" x="154" y="-7" font-family="Helvetica,sans-Serif" font-size="10.00">Adafruit_MPU6050.h</text>
</a>
</g>
</g>
<!-- Node5&#45;&gt;Node8 -->
<g id="edge7" class="edge">
<title>Node5&#45;&gt;Node8</title>
<path fill="none" stroke="#63b8ff" d="M344.79,-56.46C308.41,-47.7 245.78,-32.61 202.24,-22.12"/>
<polygon fill="#63b8ff" stroke="#63b8ff" points="203.07,-18.72 192.53,-19.78 201.43,-25.53 203.07,-18.72"/>
</g>
<!-- Node9 -->
<g id="node9" class="node">
<title>Node9</title>
<g id="a_node9"><a xlink:title=" ">
<polygon fill="#e0e0e0" stroke="#999999" points="332,-19 230,-19 230,0 332,0 332,-19"/>
<text text-anchor="middle" x="281" y="-7" font-family="Helvetica,sans-Serif" font-size="10.00">Adafruit_Sensor.h</text>
</a>
</g>
</g>
<!-- Node5&#45;&gt;Node9 -->
<g id="edge8" class="edge">
<title>Node5&#45;&gt;Node9</title>
<path fill="none" stroke="#63b8ff" d="M358.22,-54.51C343.98,-46.39 322.76,-34.3 306.17,-24.85"/>
<polygon fill="#63b8ff" stroke="#63b8ff" points="308.28,-22.02 297.86,-20.11 304.81,-28.1 308.28,-22.02"/>
</g>
<!-- Node10 -->
<g id="node10" class="node">
<title>Node10</title>
<g id="a_node10"><a xlink:title=" ">
<polygon fill="#e0e0e0" stroke="#999999" points="398,-19 350,-19 350,0 398,0 398,-19"/>
<text text-anchor="middle" x="374" y="-7" font-family="Helvetica,sans-Serif" font-size="10.00">Wire.h</text>
</a>
</g>
</g>
<!-- Node5&#45;&gt;Node10 -->
<g id="edge9" class="edge">
<title>Node5&#45;&gt;Node10</title>
<path fill="none" stroke="#63b8ff" d="M374,-54.75C374,-48.27 374,-39.16 374,-30.9"/>
<polygon fill="#63b8ff" stroke="#63b8ff" points="377.5,-30.96 374,-20.96 370.5,-30.96 377.5,-30.96"/>
</g>
<!-- Node11 -->
<g id="node11" class="node">
<title>Node11</title>
<g id="a_node11"><a xlink:title=" ">
<polygon fill="#e0e0e0" stroke="#999999" points="526,-19 416,-19 416,0 526,0 526,-19"/>
<text text-anchor="middle" x="471" y="-7" font-family="Helvetica,sans-Serif" font-size="10.00">json/FirebaseJson.h</text>
</a>
</g>
</g>
<!-- Node5&#45;&gt;Node11 -->
<g id="edge10" class="edge">
<title>Node5&#45;&gt;Node11</title>
<path fill="none" stroke="#63b8ff" d="M390.45,-54.51C405.32,-46.39 427.44,-34.3 444.75,-24.85"/>
<polygon fill="#63b8ff" stroke="#63b8ff" points="446.36,-27.95 453.46,-20.08 443.01,-21.81 446.36,-27.95"/>
</g>
<!-- Node12&#45;&gt;Node5 -->
<g id="edge14" class="edge">
<title>Node12&#45;&gt;Node5</title>
<path fill="none" stroke="#63b8ff" d="M462.85,-109.51C446.22,-101.27 421.36,-88.96 402.15,-79.45"/>
<polygon fill="#63b8ff" stroke="#63b8ff" points="403.75,-76.33 393.24,-75.03 400.65,-82.6 403.75,-76.33"/>
</g>
<!-- Node13 -->
<g id="node13" class="node">
<title>Node13</title>
<g id="a_node13"><a xlink:href="AbnormalCondition_8h.html" target="_top" xlink:title=" ">
<polygon fill="white" stroke="#666666" points="540.5,-74 421.5,-74 421.5,-55 540.5,-55 540.5,-74"/>
<text text-anchor="middle" x="481" y="-62" font-family="Helvetica,sans-Serif" font-size="10.00">AbnormalCondition.h</text>
</a>
</g>
</g>
<!-- Node12&#45;&gt;Node13 -->
<g id="edge12" class="edge">
<title>Node12&#45;&gt;Node13</title>
<path fill="none" stroke="#63b8ff" d="M481,-109.75C481,-103.27 481,-94.16 481,-85.9"/>
<polygon fill="#63b8ff" stroke="#63b8ff" points="484.5,-85.96 481,-75.96 477.5,-85.96 484.5,-85.96"/>
</g>
<!-- Node13&#45;&gt;Node6 -->
<g id="edge13" class="edge">
<title>Node13&#45;&gt;Node6</title>
<path fill="none" stroke="#63b8ff" d="M497.12,-54.51C511.67,-46.39 533.34,-34.3 550.29,-24.85"/>
<polygon fill="#63b8ff" stroke="#63b8ff" points="551.77,-28.02 558.8,-20.1 548.36,-21.91 551.77,-28.02"/>
</g>
<!-- Node16&#45;&gt;Node6 -->
<g id="edge20" class="edge">
<title>Node16&#45;&gt;Node6</title>
<path fill="none" stroke="#63b8ff" d="M708.03,-54.51C682.02,-45.84 642.45,-32.65 613.4,-22.97"/>
<polygon fill="#63b8ff" stroke="#63b8ff" points="614.87,-19.77 604.27,-19.92 612.65,-26.41 614.87,-19.77"/>
</g>
</g>
</svg>
