<?xml version="1.0" encoding="UTF-8" standalone="no"?>
<!DOCTYPE svg PUBLIC "-//W3C//DTD SVG 1.1//EN"
 "http://www.w3.org/Graphics/SVG/1.1/DTD/svg11.dtd">
<!-- Generated by graphviz version 7.0.2 (0)
 -->
<!-- Title: Sensor::Manager Pages: 1 -->
<svg width="274pt" height="181pt"
 viewBox="0.00 0.00 274.00 181.00" xmlns="http://www.w3.org/2000/svg" xmlns:xlink="http://www.w3.org/1999/xlink">
<g id="graph0" class="graph" transform="scale(1 1) rotate(0) translate(4 177)">
<title>Sensor::Manager</title>
<!-- Node1 -->
<g id="node1" class="node">
<title>Node1</title>
<g id="a_node1"><a xlink:title=" ">
<polygon fill="#999999" stroke="#666666" points="184.5,-74 80.5,-74 80.5,0 184.5,0 184.5,-74"/>
<text text-anchor="middle" x="132.5" y="-62" font-family="Helvetica,sans-Serif" font-size="10.00">{Sensor::Manager</text>
<text text-anchor="start" x="88.5" y="-51" font-family="Helvetica,sans-Serif" font-size="10.00">||+ init()</text>
<text text-anchor="start" x="88.5" y="-40" font-family="Helvetica,sans-Serif" font-size="10.00">+ sync()</text>
<text text-anchor="start" x="88.5" y="-29" font-family="Helvetica,sans-Serif" font-size="10.00">+ to_json()</text>
<text text-anchor="start" x="88.5" y="-18" font-family="Helvetica,sans-Serif" font-size="10.00">+ print()</text>
<text text-anchor="middle" x="132.5" y="-7" font-family="Helvetica,sans-Serif" font-size="10.00">}</text>
</a>
</g>
</g>
<!-- Node2 -->
<g id="node2" class="node">
<title>Node2</title>
<g id="a_node2"><a xlink:href="structSensor_1_1Health_1_1Data.html" target="_top" xlink:title=" ">
<polygon fill="white" stroke="#666666" points="123,-173 0,-173 0,-121 123,-121 123,-173"/>
<text text-anchor="middle" x="61.5" y="-161" font-family="Helvetica,sans-Serif" font-size="10.00">{Sensor::Health::Data</text>
<text text-anchor="start" x="8" y="-150" font-family="Helvetica,sans-Serif" font-size="10.00">|+ heart_rate</text>
<text text-anchor="start" x="8" y="-139" font-family="Helvetica,sans-Serif" font-size="10.00">+ spo2</text>
<text text-anchor="middle" x="61.5" y="-128" font-family="Helvetica,sans-Serif" font-size="10.00">|}</text>
</a>
</g>
</g>
<!-- Node2&#45;&gt;Node1 -->
<g id="edge1" class="edge">
<title>Node2&#45;&gt;Node1</title>
<path fill="none" stroke="#404040" d="M78.15,-120.68C85.18,-109.97 93.61,-97.15 101.71,-84.83"/>
<polygon fill="none" stroke="#404040" points="101.61,-84.99 101.56,-77.77 108.2,-74.96 108.25,-82.17 101.61,-84.99"/>
<text text-anchor="middle" x="132.5" y="-95" font-family="Helvetica,sans-Serif" font-size="10.00"> +health_data</text>
</g>
<!-- Node3 -->
<g id="node3" class="node">
<title>Node3</title>
<g id="a_node3"><a xlink:href="structSensor_1_1Motion_1_1Data.html" target="_top" xlink:title=" ">
<polygon fill="white" stroke="#666666" points="266,-173 141,-173 141,-121 266,-121 266,-173"/>
<text text-anchor="middle" x="203.5" y="-161" font-family="Helvetica,sans-Serif" font-size="10.00">{Sensor::Motion::Data</text>
<text text-anchor="start" x="149" y="-150" font-family="Helvetica,sans-Serif" font-size="10.00">|+ acceleration</text>
<text text-anchor="start" x="149" y="-139" font-family="Helvetica,sans-Serif" font-size="10.00">+ gyro</text>
<text text-anchor="middle" x="203.5" y="-128" font-family="Helvetica,sans-Serif" font-size="10.00">|}</text>
</a>
</g>
</g>
<!-- Node3&#45;&gt;Node1 -->
<g id="edge2" class="edge">
<title>Node3&#45;&gt;Node1</title>
<path fill="none" stroke="#404040" d="M189.15,-120.71C183.79,-111.55 177.53,-101.21 171.5,-92 169.95,-89.64 168.35,-87.24 166.71,-84.83"/>
<polygon fill="none" stroke="#404040" points="166.75,-84.88 160.04,-82.24 159.9,-75.03 166.61,-77.67 166.75,-84.88"/>
<text text-anchor="middle" x="214" y="-95" font-family="Helvetica,sans-Serif" font-size="10.00"> +motion_data</text>
</g>
</g>
</svg>
