<?xml version="1.0" encoding="UTF-8" standalone="no"?>
<!DOCTYPE svg PUBLIC "-//W3C//DTD SVG 1.1//EN"
 "http://www.w3.org/Graphics/SVG/1.1/DTD/svg11.dtd">
<!-- Generated by graphviz version 7.0.2 (0)
 -->
<!-- Title: lib/Database/src/Database.h Pages: 1 -->
<svg width="734pt" height="192pt"
 viewBox="0.00 0.00 734.00 192.00" xmlns="http://www.w3.org/2000/svg" xmlns:xlink="http://www.w3.org/1999/xlink">
<g id="graph0" class="graph" transform="scale(1 1) rotate(0) translate(4 188)">
<title>lib/Database/src/Database.h</title>
<!-- Node1 -->
<g id="node1" class="node">
<title>Node1</title>
<g id="a_node1"><a xlink:title=" ">
<polygon fill="#999999" stroke="#666666" points="286,-184 132,-184 132,-165 286,-165 286,-184"/>
<text text-anchor="middle" x="209" y="-172" font-family="Helvetica,sans-Serif" font-size="10.00">lib/Database/src/Database.h</text>
</a>
</g>
</g>
<!-- Node2 -->
<g id="node2" class="node">
<title>Node2</title>
<g id="a_node2"><a xlink:title=" ">
<polygon fill="#e0e0e0" stroke="#999999" points="64,-129 0,-129 0,-110 64,-110 64,-129"/>
<text text-anchor="middle" x="32" y="-117" font-family="Helvetica,sans-Serif" font-size="10.00">WString.h</text>
</a>
</g>
</g>
<!-- Node1&#45;&gt;Node2 -->
<g id="edge1" class="edge">
<title>Node1&#45;&gt;Node2</title>
<path fill="none" stroke="#63b8ff" d="M178.97,-164.51C149.77,-155.76 105.19,-142.42 72.79,-132.71"/>
<polygon fill="#63b8ff" stroke="#63b8ff" points="73.91,-129.4 63.33,-129.88 71.9,-136.1 73.91,-129.4"/>
</g>
<!-- Node3 -->
<g id="node3" class="node">
<title>Node3</title>
<g id="a_node3"><a xlink:title=" ">
<polygon fill="#e0e0e0" stroke="#999999" points="206,-129 82,-129 82,-110 206,-110 206,-129"/>
<text text-anchor="middle" x="144" y="-117" font-family="Helvetica,sans-Serif" font-size="10.00">Firebase_ESP_Client.h</text>
</a>
</g>
</g>
<!-- Node1&#45;&gt;Node3 -->
<g id="edge2" class="edge">
<title>Node1&#45;&gt;Node3</title>
<path fill="none" stroke="#63b8ff" d="M197.97,-164.51C188.58,-156.85 174.85,-145.66 163.59,-136.47"/>
<polygon fill="#63b8ff" stroke="#63b8ff" points="166,-133.92 156.04,-130.31 161.57,-139.35 166,-133.92"/>
</g>
<!-- Node4 -->
<g id="node4" class="node">
<title>Node4</title>
<g id="a_node4"><a xlink:href="Sensor_8h.html" target="_top" xlink:title=" ">
<polygon fill="white" stroke="#666666" points="383,-74 325,-74 325,-55 383,-55 383,-74"/>
<text text-anchor="middle" x="354" y="-62" font-family="Helvetica,sans-Serif" font-size="10.00">Sensor.h</text>
</a>
</g>
</g>
<!-- Node1&#45;&gt;Node4 -->
<g id="edge3" class="edge">
<title>Node1&#45;&gt;Node4</title>
<path fill="none" stroke="#63b8ff" d="M268.35,-164.53C291.9,-158.2 317.48,-147.4 335,-129 346.18,-117.26 350.81,-99.21 352.71,-85.35"/>
<polygon fill="#63b8ff" stroke="#63b8ff" points="356.17,-85.9 353.66,-75.61 349.21,-85.23 356.17,-85.9"/>
</g>
<!-- Node11 -->
<g id="node11" class="node">
<title>Node11</title>
<g id="a_node11"><a xlink:href="SensorManager_8h.html" target="_top" xlink:title=" ">
<polygon fill="white" stroke="#666666" points="325.5,-129 224.5,-129 224.5,-110 325.5,-110 325.5,-129"/>
<text text-anchor="middle" x="275" y="-117" font-family="Helvetica,sans-Serif" font-size="10.00">SensorManager.h</text>
</a>
</g>
</g>
<!-- Node1&#45;&gt;Node11 -->
<g id="edge10" class="edge">
<title>Node1&#45;&gt;Node11</title>
<path fill="none" stroke="#63b8ff" d="M220.2,-164.51C229.74,-156.85 243.67,-145.66 255.11,-136.47"/>
<polygon fill="#63b8ff" stroke="#63b8ff" points="257.18,-139.3 262.79,-130.31 252.8,-133.84 257.18,-139.3"/>
</g>
<!-- Node5 -->
<g id="node5" class="node">
<title>Node5</title>
<g id="a_node5"><a xlink:title=" ">
<polygon fill="#e0e0e0" stroke="#999999" points="181.5,-19 118.5,-19 118.5,0 181.5,0 181.5,-19"/>
<text text-anchor="middle" x="150" y="-7" font-family="Helvetica,sans-Serif" font-size="10.00">Arduino.h</text>
</a>
</g>
</g>
<!-- Node4&#45;&gt;Node5 -->
<g id="edge4" class="edge">
<title>Node4&#45;&gt;Node5</title>
<path fill="none" stroke="#63b8ff" d="M324.77,-55.91C290.2,-46.93 232.37,-31.9 192.76,-21.61"/>
<polygon fill="#63b8ff" stroke="#63b8ff" points="193.88,-18.29 183.33,-19.16 192.12,-25.06 193.88,-18.29"/>
</g>
<!-- Node6 -->
<g id="node6" class="node">
<title>Node6</title>
<g id="a_node6"><a xlink:title=" ">
<polygon fill="#e0e0e0" stroke="#999999" points="278,-19 200,-19 200,0 278,0 278,-19"/>
<text text-anchor="middle" x="239" y="-7" font-family="Helvetica,sans-Serif" font-size="10.00">MAX30105.h</text>
</a>
</g>
</g>
<!-- Node4&#45;&gt;Node6 -->
<g id="edge5" class="edge">
<title>Node4&#45;&gt;Node6</title>
<path fill="none" stroke="#63b8ff" d="M334.49,-54.51C316.37,-46.16 289.15,-33.61 268.4,-24.05"/>
<polygon fill="#63b8ff" stroke="#63b8ff" points="270.14,-21 259.59,-19.99 267.21,-27.36 270.14,-21"/>
</g>
<!-- Node7 -->
<g id="node7" class="node">
<title>Node7</title>
<g id="a_node7"><a xlink:title=" ">
<polygon fill="#e0e0e0" stroke="#999999" points="412,-19 296,-19 296,0 412,0 412,-19"/>
<text text-anchor="middle" x="354" y="-7" font-family="Helvetica,sans-Serif" font-size="10.00">Adafruit_MPU6050.h</text>
</a>
</g>
</g>
<!-- Node4&#45;&gt;Node7 -->
<g id="edge6" class="edge">
<title>Node4&#45;&gt;Node7</title>
<path fill="none" stroke="#63b8ff" d="M354,-54.75C354,-48.27 354,-39.16 354,-30.9"/>
<polygon fill="#63b8ff" stroke="#63b8ff" points="357.5,-30.96 354,-20.96 350.5,-30.96 357.5,-30.96"/>
</g>
<!-- Node8 -->
<g id="node8" class="node">
<title>Node8</title>
<g id="a_node8"><a xlink:title=" ">
<polygon fill="#e0e0e0" stroke="#999999" points="532,-19 430,-19 430,0 532,0 532,-19"/>
<text text-anchor="middle" x="481" y="-7" font-family="Helvetica,sans-Serif" font-size="10.00">Adafruit_Sensor.h</text>
</a>
</g>
</g>
<!-- Node4&#45;&gt;Node8 -->
<g id="edge7" class="edge">
<title>Node4&#45;&gt;Node8</title>
<path fill="none" stroke="#63b8ff" d="M375.54,-54.51C395.74,-46.08 426.17,-33.38 449.16,-23.79"/>
<polygon fill="#63b8ff" stroke="#63b8ff" points="450.5,-27.02 458.38,-19.94 447.8,-20.56 450.5,-27.02"/>
</g>
<!-- Node9 -->
<g id="node9" class="node">
<title>Node9</title>
<g id="a_node9"><a xlink:title=" ">
<polygon fill="#e0e0e0" stroke="#999999" points="598,-19 550,-19 550,0 598,0 598,-19"/>
<text text-anchor="middle" x="574" y="-7" font-family="Helvetica,sans-Serif" font-size="10.00">Wire.h</text>
</a>
</g>
</g>
<!-- Node4&#45;&gt;Node9 -->
<g id="edge8" class="edge">
<title>Node4&#45;&gt;Node9</title>
<path fill="none" stroke="#63b8ff" d="M383.19,-56.73C417.94,-48.63 477.98,-34.52 538.59,-19.56"/>
<polygon fill="#63b8ff" stroke="#63b8ff" points="539.17,-23.03 548.04,-17.23 537.49,-16.23 539.17,-23.03"/>
</g>
<!-- Node10 -->
<g id="node10" class="node">
<title>Node10</title>
<g id="a_node10"><a xlink:title=" ">
<polygon fill="#e0e0e0" stroke="#999999" points="726,-19 616,-19 616,0 726,0 726,-19"/>
<text text-anchor="middle" x="671" y="-7" font-family="Helvetica,sans-Serif" font-size="10.00">json/FirebaseJson.h</text>
</a>
</g>
</g>
<!-- Node4&#45;&gt;Node10 -->
<g id="edge9" class="edge">
<title>Node4&#45;&gt;Node10</title>
<path fill="none" stroke="#63b8ff" d="M383.25,-58.61C433.64,-50.19 537.92,-32.75 606.14,-21.34"/>
<polygon fill="#63b8ff" stroke="#63b8ff" points="606.4,-24.85 615.69,-19.75 605.25,-17.94 606.4,-24.85"/>
</g>
<!-- Node11&#45;&gt;Node4 -->
<g id="edge13" class="edge">
<title>Node11&#45;&gt;Node4</title>
<path fill="none" stroke="#63b8ff" d="M288.4,-109.51C300.16,-101.62 317.51,-89.98 331.41,-80.65"/>
<polygon fill="#63b8ff" stroke="#63b8ff" points="333.19,-83.68 339.54,-75.2 329.29,-77.87 333.19,-83.68"/>
</g>
<!-- Node12 -->
<g id="node12" class="node">
<title>Node12</title>
<g id="a_node12"><a xlink:href="AbnormalCondition_8h.html" target="_top" xlink:title=" ">
<polygon fill="white" stroke="#666666" points="258.5,-74 139.5,-74 139.5,-55 258.5,-55 258.5,-74"/>
<text text-anchor="middle" x="199" y="-62" font-family="Helvetica,sans-Serif" font-size="10.00">AbnormalCondition.h</text>
</a>
</g>
</g>
<!-- Node11&#45;&gt;Node12 -->
<g id="edge11" class="edge">
<title>Node11&#45;&gt;Node12</title>
<path fill="none" stroke="#63b8ff" d="M262.11,-109.51C250.9,-101.7 234.43,-90.21 221.12,-80.93"/>
<polygon fill="#63b8ff" stroke="#63b8ff" points="223.15,-78.07 212.94,-75.22 219.14,-83.81 223.15,-78.07"/>
</g>
<!-- Node12&#45;&gt;Node5 -->
<g id="edge12" class="edge">
<title>Node12&#45;&gt;Node5</title>
<path fill="none" stroke="#63b8ff" d="M190.91,-54.75C184.14,-47.43 174.28,-36.76 165.94,-27.74"/>
<polygon fill="#63b8ff" stroke="#63b8ff" points="168.65,-25.52 159.29,-20.55 163.51,-30.27 168.65,-25.52"/>
</g>
</g>
</svg>
