<?xml version="1.0" encoding="UTF-8" standalone="no"?>
<!DOCTYPE svg PUBLIC "-//W3C//DTD SVG 1.1//EN"
 "http://www.w3.org/Graphics/SVG/1.1/DTD/svg11.dtd">
<!-- Generated by graphviz version 7.0.2 (0)
 -->
<!-- Title: lib/Helper/src/DeviceInfo.cpp Pages: 1 -->
<svg width="194pt" height="137pt"
 viewBox="0.00 0.00 193.50 137.00" xmlns="http://www.w3.org/2000/svg" xmlns:xlink="http://www.w3.org/1999/xlink">
<g id="graph0" class="graph" transform="scale(1 1) rotate(0) translate(4 133)">
<title>lib/Helper/src/DeviceInfo.cpp</title>
<!-- Node1 -->
<g id="node1" class="node">
<title>Node1</title>
<g id="a_node1"><a xlink:title=" ">
<polygon fill="#999999" stroke="#666666" points="168.5,-129 11.5,-129 11.5,-110 168.5,-110 168.5,-129"/>
<text text-anchor="middle" x="90" y="-117" font-family="Helvetica,sans-Serif" font-size="10.00">lib/Helper/src/DeviceInfo.cpp</text>
</a>
</g>
</g>
<!-- Node2 -->
<g id="node2" class="node">
<title>Node2</title>
<g id="a_node2"><a xlink:href="DeviceInfo_8h.html" target="_top" xlink:title=" ">
<polygon fill="white" stroke="#666666" points="78,-74 0,-74 0,-55 78,-55 78,-74"/>
<text text-anchor="middle" x="39" y="-62" font-family="Helvetica,sans-Serif" font-size="10.00">DeviceInfo.h</text>
</a>
</g>
</g>
<!-- Node1&#45;&gt;Node2 -->
<g id="edge1" class="edge">
<title>Node1&#45;&gt;Node2</title>
<path fill="none" stroke="#63b8ff" d="M81.58,-109.75C74.53,-102.43 64.27,-91.76 55.59,-82.74"/>
<polygon fill="#63b8ff" stroke="#63b8ff" points="58.11,-80.31 48.65,-75.53 53.07,-85.17 58.11,-80.31"/>
</g>
<!-- Node4 -->
<g id="node4" class="node">
<title>Node4</title>
<g id="a_node4"><a xlink:title=" ">
<polygon fill="#e0e0e0" stroke="#999999" points="185.5,-74 96.5,-74 96.5,-55 185.5,-55 185.5,-74"/>
<text text-anchor="middle" x="141" y="-62" font-family="Helvetica,sans-Serif" font-size="10.00">WiFiManager.h</text>
</a>
</g>
</g>
<!-- Node1&#45;&gt;Node4 -->
<g id="edge3" class="edge">
<title>Node1&#45;&gt;Node4</title>
<path fill="none" stroke="#63b8ff" d="M98.42,-109.75C105.47,-102.43 115.73,-91.76 124.41,-82.74"/>
<polygon fill="#63b8ff" stroke="#63b8ff" points="126.93,-85.17 131.35,-75.53 121.89,-80.31 126.93,-85.17"/>
</g>
<!-- Node3 -->
<g id="node3" class="node">
<title>Node3</title>
<g id="a_node3"><a xlink:title=" ">
<polygon fill="#e0e0e0" stroke="#999999" points="70.5,-19 7.5,-19 7.5,0 70.5,0 70.5,-19"/>
<text text-anchor="middle" x="39" y="-7" font-family="Helvetica,sans-Serif" font-size="10.00">Arduino.h</text>
</a>
</g>
</g>
<!-- Node2&#45;&gt;Node3 -->
<g id="edge2" class="edge">
<title>Node2&#45;&gt;Node3</title>
<path fill="none" stroke="#63b8ff" d="M39,-54.75C39,-48.27 39,-39.16 39,-30.9"/>
<polygon fill="#63b8ff" stroke="#63b8ff" points="42.5,-30.96 39,-20.96 35.5,-30.96 42.5,-30.96"/>
</g>
</g>
</svg>
