<?xml version="1.0" encoding="UTF-8" standalone="no"?>
<!DOCTYPE svg PUBLIC "-//W3C//DTD SVG 1.1//EN"
 "http://www.w3.org/Graphics/SVG/1.1/DTD/svg11.dtd">
<!-- Generated by graphviz version 7.0.2 (0)
 -->
<!-- Title: lib Pages: 1 -->
<svg width="252pt" height="224pt"
 viewBox="0.00 0.00 252.00 224.00" xmlns="http://www.w3.org/2000/svg" xmlns:xlink="http://www.w3.org/1999/xlink">
<g id="graph0" class="graph" transform="scale(1 1) rotate(0) translate(4 220)">
<title>lib</title>
<g id="clust1" class="cluster">
<title>clusterdir_97aefd0d527b934f1d99a682da8fe6a9</title>
<g id="a_clust1"><a xlink:href="dir_97aefd0d527b934f1d99a682da8fe6a9.html" target="_top">
<polygon fill="#edf0f7" stroke="#404040" stroke-width="2" points="8,-8 8,-208 236,-208 236,-8 8,-8"/>
</a>
</g>
</g>
<!-- dir_97aefd0d527b934f1d99a682da8fe6a9 -->
<g id="node1" class="node">
<title>dir_97aefd0d527b934f1d99a682da8fe6a9</title>
<text text-anchor="middle" x="197" y="-188" font-family="Helvetica,sans-Serif" font-size="10.00">lib</text>
</g>
<!-- dir_dcdf07e3db1d9451f245332dc8b99070 -->
<g id="node2" class="node">
<title>dir_dcdf07e3db1d9451f245332dc8b99070</title>
<g id="a_node2"><a xlink:href="dir_dcdf07e3db1d9451f245332dc8b99070.html" target="_top" xlink:title="Database">
<polygon fill="#a2b4d6" stroke="#404040" points="145.5,-200 82.5,-200 82.5,-181 145.5,-181 145.5,-200"/>
<text text-anchor="middle" x="114" y="-188" font-family="Helvetica,sans-Serif" font-size="10.00">Database</text>
</a>
</g>
</g>
<!-- dir_6d49f9c66bf3031a094bf79a5019d5a1 -->
<g id="node4" class="node">
<title>dir_6d49f9c66bf3031a094bf79a5019d5a1</title>
<g id="a_node4"><a xlink:href="dir_6d49f9c66bf3031a094bf79a5019d5a1.html" target="_top" xlink:title="Helper">
<polygon fill="#a2b4d6" stroke="#404040" points="115.5,-35 66.5,-35 66.5,-16 115.5,-16 115.5,-35"/>
<text text-anchor="middle" x="91" y="-23" font-family="Helvetica,sans-Serif" font-size="10.00">Helper</text>
</a>
</g>
</g>
<!-- dir_dcdf07e3db1d9451f245332dc8b99070&#45;&gt;dir_6d49f9c66bf3031a094bf79a5019d5a1 -->
<g id="edge1" class="edge">
<title>dir_dcdf07e3db1d9451f245332dc8b99070&#45;&gt;dir_6d49f9c66bf3031a094bf79a5019d5a1</title>
<path fill="none" stroke="#63b8ff" d="M112.76,-180.74C109.21,-155.53 98.88,-82.36 93.84,-46.62"/>
<polygon fill="#63b8ff" stroke="#63b8ff" points="97.32,-46.22 92.45,-36.81 90.39,-47.2 97.32,-46.22"/>
<g id="a_edge1&#45;headlabel"><a xlink:href="dir_000000_000002.html" target="_top" xlink:title="2">
<text text-anchor="middle" x="100.42" y="-45.38" font-family="Helvetica,sans-Serif" font-size="10.00" fill="#63b8ff">2</text>
</a>
</g>
</g>
<!-- dir_209f74e9e5592987b0e286406059eba2 -->
<g id="node6" class="node">
<title>dir_209f74e9e5592987b0e286406059eba2</title>
<g id="a_node6"><a xlink:href="dir_209f74e9e5592987b0e286406059eba2.html" target="_top" xlink:title="Sensor">
<polygon fill="#a2b4d6" stroke="#404040" points="160,-90 110,-90 110,-71 160,-71 160,-90"/>
<text text-anchor="middle" x="135" y="-78" font-family="Helvetica,sans-Serif" font-size="10.00">Sensor</text>
</a>
</g>
</g>
<!-- dir_dcdf07e3db1d9451f245332dc8b99070&#45;&gt;dir_209f74e9e5592987b0e286406059eba2 -->
<g id="edge2" class="edge">
<title>dir_dcdf07e3db1d9451f245332dc8b99070&#45;&gt;dir_209f74e9e5592987b0e286406059eba2</title>
<path fill="none" stroke="#63b8ff" d="M115.12,-180.83C116.77,-168.57 120.07,-145.47 124,-126 125.63,-117.91 127.75,-109.06 129.69,-101.41"/>
<polygon fill="#63b8ff" stroke="#63b8ff" points="133.06,-102.34 132.2,-91.78 126.29,-100.57 133.06,-102.34"/>
<g id="a_edge2&#45;headlabel"><a xlink:href="dir_000000_000005.html" target="_top" xlink:title="2">
<text text-anchor="middle" x="135.29" y="-102.57" font-family="Helvetica,sans-Serif" font-size="10.00" fill="#63b8ff">2</text>
</a>
</g>
</g>
<!-- dir_312f761766ee36a9027b1b553438f0c0 -->
<g id="node7" class="node">
<title>dir_312f761766ee36a9027b1b553438f0c0</title>
<g id="a_node7"><a xlink:href="dir_312f761766ee36a9027b1b553438f0c0.html" target="_top" xlink:title="SensorManager">
<polygon fill="#a2b4d6" stroke="#404040" points="225,-145 133,-145 133,-126 225,-126 225,-145"/>
<text text-anchor="middle" x="179" y="-133" font-family="Helvetica,sans-Serif" font-size="10.00">SensorManager</text>
</a>
</g>
</g>
<!-- dir_dcdf07e3db1d9451f245332dc8b99070&#45;&gt;dir_312f761766ee36a9027b1b553438f0c0 -->
<g id="edge3" class="edge">
<title>dir_dcdf07e3db1d9451f245332dc8b99070&#45;&gt;dir_312f761766ee36a9027b1b553438f0c0</title>
<path fill="none" stroke="#63b8ff" d="M125.03,-180.51C134.42,-172.85 148.15,-161.66 159.41,-152.47"/>
<polygon fill="#63b8ff" stroke="#63b8ff" points="161.43,-155.35 166.96,-146.31 157,-149.92 161.43,-155.35"/>
<g id="a_edge3&#45;headlabel"><a xlink:href="dir_000000_000006.html" target="_top" xlink:title="1">
<text text-anchor="middle" x="161.61" y="-156.36" font-family="Helvetica,sans-Serif" font-size="10.00" fill="#63b8ff">1</text>
</a>
</g>
</g>
<!-- dir_c3b041b8bc8ad8966407521dc80e3639 -->
<g id="node3" class="node">
<title>dir_c3b041b8bc8ad8966407521dc80e3639</title>
<g id="a_node3"><a xlink:href="dir_c3b041b8bc8ad8966407521dc80e3639.html" target="_top" xlink:title="Health">
<polygon fill="#a2b4d6" stroke="#404040" points="227.5,-90 178.5,-90 178.5,-71 227.5,-71 227.5,-90"/>
<text text-anchor="middle" x="203" y="-78" font-family="Helvetica,sans-Serif" font-size="10.00">Health</text>
</a>
</g>
</g>
<!-- dir_a84a08366a727e1d266606f9974d5a8a -->
<g id="node5" class="node">
<title>dir_a84a08366a727e1d266606f9974d5a8a</title>
<g id="a_node5"><a xlink:href="dir_a84a08366a727e1d266606f9974d5a8a.html" target="_top" xlink:title="Internet">
<polygon fill="#a2b4d6" stroke="#404040" points="71.5,-90 16.5,-90 16.5,-71 71.5,-71 71.5,-90"/>
<text text-anchor="middle" x="44" y="-78" font-family="Helvetica,sans-Serif" font-size="10.00">Internet</text>
</a>
</g>
</g>
<!-- dir_a84a08366a727e1d266606f9974d5a8a&#45;&gt;dir_6d49f9c66bf3031a094bf79a5019d5a1 -->
<g id="edge4" class="edge">
<title>dir_a84a08366a727e1d266606f9974d5a8a&#45;&gt;dir_6d49f9c66bf3031a094bf79a5019d5a1</title>
<path fill="none" stroke="#63b8ff" d="M51.76,-70.75C58.19,-63.5 67.51,-52.98 75.46,-44.02"/>
<polygon fill="#63b8ff" stroke="#63b8ff" points="78.05,-46.38 82.07,-36.57 72.81,-41.73 78.05,-46.38"/>
<g id="a_edge4&#45;headlabel"><a xlink:href="dir_000003_000002.html" target="_top" xlink:title="1">
<text text-anchor="middle" x="78.79" y="-47.32" font-family="Helvetica,sans-Serif" font-size="10.00" fill="#63b8ff">1</text>
</a>
</g>
</g>
<!-- dir_209f74e9e5592987b0e286406059eba2&#45;&gt;dir_6d49f9c66bf3031a094bf79a5019d5a1 -->
<g id="edge5" class="edge">
<title>dir_209f74e9e5592987b0e286406059eba2&#45;&gt;dir_6d49f9c66bf3031a094bf79a5019d5a1</title>
<path fill="none" stroke="#63b8ff" d="M127.73,-70.75C121.72,-63.5 112.99,-52.98 105.54,-44.02"/>
<polygon fill="#63b8ff" stroke="#63b8ff" points="108.47,-42.07 99.39,-36.61 103.08,-46.54 108.47,-42.07"/>
<g id="a_edge5&#45;headlabel"><a xlink:href="dir_000005_000002.html" target="_top" xlink:title="2">
<text text-anchor="middle" x="111.98" y="-39.35" font-family="Helvetica,sans-Serif" font-size="10.00" fill="#63b8ff">2</text>
</a>
</g>
</g>
<!-- dir_312f761766ee36a9027b1b553438f0c0&#45;&gt;dir_c3b041b8bc8ad8966407521dc80e3639 -->
<g id="edge7" class="edge">
<title>dir_312f761766ee36a9027b1b553438f0c0&#45;&gt;dir_c3b041b8bc8ad8966407521dc80e3639</title>
<path fill="none" stroke="#63b8ff" d="M182.96,-125.75C186.04,-118.96 190.41,-109.3 194.29,-100.73"/>
<polygon fill="#63b8ff" stroke="#63b8ff" points="197.39,-102.37 198.33,-91.82 191.01,-99.49 197.39,-102.37"/>
<g id="a_edge7&#45;headlabel"><a xlink:href="dir_000006_000001.html" target="_top" xlink:title="1">
<text text-anchor="middle" x="199.12" y="-102.94" font-family="Helvetica,sans-Serif" font-size="10.00" fill="#63b8ff">1</text>
</a>
</g>
</g>
<!-- dir_312f761766ee36a9027b1b553438f0c0&#45;&gt;dir_209f74e9e5592987b0e286406059eba2 -->
<g id="edge6" class="edge">
<title>dir_312f761766ee36a9027b1b553438f0c0&#45;&gt;dir_209f74e9e5592987b0e286406059eba2</title>
<path fill="none" stroke="#63b8ff" d="M171.73,-125.75C165.72,-118.5 156.99,-107.98 149.54,-99.02"/>
<polygon fill="#63b8ff" stroke="#63b8ff" points="152.47,-97.07 143.39,-91.61 147.08,-101.54 152.47,-97.07"/>
<g id="a_edge6&#45;headlabel"><a xlink:href="dir_000006_000005.html" target="_top" xlink:title="1">
<text text-anchor="middle" x="155.98" y="-94.35" font-family="Helvetica,sans-Serif" font-size="10.00" fill="#63b8ff">1</text>
</a>
</g>
</g>
</g>
</svg>
