<?xml version="1.0" encoding="UTF-8" standalone="no"?>
<!DOCTYPE svg PUBLIC "-//W3C//DTD SVG 1.1//EN"
 "http://www.w3.org/Graphics/SVG/1.1/DTD/svg11.dtd">
<!-- Generated by graphviz version 7.0.2 (0)
 -->
<!-- Title: lib/Database/src Pages: 1 -->
<svg width="236pt" height="117pt"
 viewBox="0.00 0.00 235.50 117.00" xmlns="http://www.w3.org/2000/svg" xmlns:xlink="http://www.w3.org/1999/xlink">
<g id="graph0" class="graph" transform="scale(1 1) rotate(0) translate(4 113)">
<title>lib/Database/src</title>
<g id="clust1" class="cluster">
<title>clusterdir_dcdf07e3db1d9451f245332dc8b99070</title>
<g id="a_clust1"><a xlink:href="dir_dcdf07e3db1d9451f245332dc8b99070.html" target="_top" xlink:title="Database">
<polygon fill="#edf0f7" stroke="#7f7f7f" stroke-dasharray="5,2" points="83,-47 83,-101 146,-101 146,-47 83,-47"/>
<text text-anchor="middle" x="114.5" y="-89" font-family="Helvetica,sans-Serif" font-size="10.00">Database</text>
</a>
</g>
</g>
<!-- dir_0b3eed99154b4a0f883ec317e581ef4c -->
<g id="node1" class="node">
<title>dir_0b3eed99154b4a0f883ec317e581ef4c</title>
<g id="a_node1"><a xlink:href="dir_0b3eed99154b4a0f883ec317e581ef4c.html" target="_top" xlink:title="src">
<polygon fill="#edf0f7" stroke="#404040" stroke-width="2" points="129.5,-74 98.5,-74 98.5,-55 129.5,-55 129.5,-74"/>
<text text-anchor="middle" x="114" y="-62" font-family="Helvetica,sans-Serif" font-size="10.00">src</text>
</a>
</g>
</g>
<!-- dir_209f74e9e5592987b0e286406059eba2 -->
<g id="node2" class="node">
<title>dir_209f74e9e5592987b0e286406059eba2</title>
<g id="a_node2"><a xlink:href="dir_209f74e9e5592987b0e286406059eba2.html" target="_top" xlink:title="Sensor">
<polygon fill="#edf0f7" stroke="#7f7f7f" points="50,-19 0,-19 0,0 50,0 50,-19"/>
<text text-anchor="middle" x="25" y="-7" font-family="Helvetica,sans-Serif" font-size="10.00">Sensor</text>
</a>
</g>
</g>
<!-- dir_0b3eed99154b4a0f883ec317e581ef4c&#45;&gt;dir_209f74e9e5592987b0e286406059eba2 -->
<g id="edge1" class="edge">
<title>dir_0b3eed99154b4a0f883ec317e581ef4c&#45;&gt;dir_209f74e9e5592987b0e286406059eba2</title>
<path fill="none" stroke="#63b8ff" d="M98.9,-54.51C85.4,-46.47 65.35,-34.53 49.54,-25.11"/>
<polygon fill="#63b8ff" stroke="#63b8ff" points="51.56,-22.24 41.18,-20.13 47.98,-28.26 51.56,-22.24"/>
<g id="a_edge1&#45;headlabel"><a xlink:href="dir_000007_000005.html" target="_top" xlink:title="2">
<text text-anchor="middle" x="54.8" y="-18.37" font-family="Helvetica,sans-Serif" font-size="10.00" fill="#63b8ff">2</text>
</a>
</g>
</g>
<!-- dir_312f761766ee36a9027b1b553438f0c0 -->
<g id="node3" class="node">
<title>dir_312f761766ee36a9027b1b553438f0c0</title>
<g id="a_node3"><a xlink:href="dir_312f761766ee36a9027b1b553438f0c0.html" target="_top" xlink:title="SensorManager">
<polygon fill="#edf0f7" stroke="#7f7f7f" points="160,-19 68,-19 68,0 160,0 160,-19"/>
<text text-anchor="middle" x="114" y="-7" font-family="Helvetica,sans-Serif" font-size="10.00">SensorManager</text>
</a>
</g>
</g>
<!-- dir_0b3eed99154b4a0f883ec317e581ef4c&#45;&gt;dir_312f761766ee36a9027b1b553438f0c0 -->
<g id="edge2" class="edge">
<title>dir_0b3eed99154b4a0f883ec317e581ef4c&#45;&gt;dir_312f761766ee36a9027b1b553438f0c0</title>
<path fill="none" stroke="#63b8ff" d="M114,-54.75C114,-48.27 114,-39.16 114,-30.9"/>
<polygon fill="#63b8ff" stroke="#63b8ff" points="117.5,-30.96 114,-20.96 110.5,-30.96 117.5,-30.96"/>
<g id="a_edge2&#45;headlabel"><a xlink:href="dir_000007_000006.html" target="_top" xlink:title="1">
<text text-anchor="middle" x="120.34" y="-30.54" font-family="Helvetica,sans-Serif" font-size="10.00" fill="#63b8ff">1</text>
</a>
</g>
</g>
<!-- dir_6d49f9c66bf3031a094bf79a5019d5a1 -->
<g id="node4" class="node">
<title>dir_6d49f9c66bf3031a094bf79a5019d5a1</title>
<g id="a_node4"><a xlink:href="dir_6d49f9c66bf3031a094bf79a5019d5a1.html" target="_top" xlink:title="Helper">
<polygon fill="#edf0f7" stroke="red" stroke-dasharray="5,2" points="227.5,-19 178.5,-19 178.5,0 227.5,0 227.5,-19"/>
<text text-anchor="middle" x="203" y="-7" font-family="Helvetica,sans-Serif" font-size="10.00">Helper</text>
</a>
</g>
</g>
<!-- dir_0b3eed99154b4a0f883ec317e581ef4c&#45;&gt;dir_6d49f9c66bf3031a094bf79a5019d5a1 -->
<g id="edge3" class="edge">
<title>dir_0b3eed99154b4a0f883ec317e581ef4c&#45;&gt;dir_6d49f9c66bf3031a094bf79a5019d5a1</title>
<path fill="none" stroke="#63b8ff" d="M129.1,-54.51C142.6,-46.47 162.65,-34.53 178.46,-25.11"/>
<polygon fill="#63b8ff" stroke="#63b8ff" points="180.02,-28.26 186.82,-20.13 176.44,-22.24 180.02,-28.26"/>
<g id="a_edge3&#45;headlabel"><a xlink:href="dir_000007_000002.html" target="_top" xlink:title="2">
<text text-anchor="middle" x="179.69" y="-29.26" font-family="Helvetica,sans-Serif" font-size="10.00" fill="#63b8ff">2</text>
</a>
</g>
</g>
</g>
</svg>
