<?xml version="1.0" encoding="UTF-8" standalone="no"?>
<!DOCTYPE svg PUBLIC "-//W3C//DTD SVG 1.1//EN"
 "http://www.w3.org/Graphics/SVG/1.1/DTD/svg11.dtd">
<!-- Generated by graphviz version 7.0.2 (0)
 -->
<!-- Title: lib/Database Pages: 1 -->
<svg width="268pt" height="141pt"
 viewBox="0.00 0.00 268.00 141.00" xmlns="http://www.w3.org/2000/svg" xmlns:xlink="http://www.w3.org/1999/xlink">
<g id="graph0" class="graph" transform="scale(1 1) rotate(0) translate(4 137)">
<title>lib/Database</title>
<g id="clust1" class="cluster">
<title>clusterdir_97aefd0d527b934f1d99a682da8fe6a9</title>
<g id="a_clust1"><a xlink:href="dir_97aefd0d527b934f1d99a682da8fe6a9.html" target="_top" xlink:title="lib">
<polygon fill="#edf0f7" stroke="#404040" stroke-dasharray="5,2" points="8,-8 8,-125 252,-125 252,-8 8,-8"/>
<text text-anchor="middle" x="130" y="-113" font-family="Helvetica,sans-Serif" font-size="10.00">lib</text>
</a>
</g>
</g>
<g id="clust2" class="cluster">
<title>clusterdir_dcdf07e3db1d9451f245332dc8b99070</title>
<g id="a_clust2"><a xlink:href="dir_dcdf07e3db1d9451f245332dc8b99070.html" target="_top">
<polygon fill="#edf0f7" stroke="#404040" stroke-width="2" points="85,-63 85,-98 214,-98 214,-63 85,-63"/>
</a>
</g>
</g>
<!-- dir_6d49f9c66bf3031a094bf79a5019d5a1 -->
<g id="node1" class="node">
<title>dir_6d49f9c66bf3031a094bf79a5019d5a1</title>
<g id="a_node1"><a xlink:href="dir_6d49f9c66bf3031a094bf79a5019d5a1.html" target="_top" xlink:title="Helper">
<polygon fill="#a2b4d6" stroke="red" points="65.5,-35 16.5,-35 16.5,-16 65.5,-16 65.5,-35"/>
<text text-anchor="middle" x="41" y="-23" font-family="Helvetica,sans-Serif" font-size="10.00">Helper</text>
</a>
</g>
</g>
<!-- dir_209f74e9e5592987b0e286406059eba2 -->
<g id="node2" class="node">
<title>dir_209f74e9e5592987b0e286406059eba2</title>
<g id="a_node2"><a xlink:href="dir_209f74e9e5592987b0e286406059eba2.html" target="_top" xlink:title="Sensor">
<polygon fill="#a2b4d6" stroke="#404040" points="134,-35 84,-35 84,-16 134,-16 134,-35"/>
<text text-anchor="middle" x="109" y="-23" font-family="Helvetica,sans-Serif" font-size="10.00">Sensor</text>
</a>
</g>
</g>
<!-- dir_312f761766ee36a9027b1b553438f0c0 -->
<g id="node3" class="node">
<title>dir_312f761766ee36a9027b1b553438f0c0</title>
<g id="a_node3"><a xlink:href="dir_312f761766ee36a9027b1b553438f0c0.html" target="_top" xlink:title="SensorManager">
<polygon fill="#a2b4d6" stroke="#404040" points="244,-35 152,-35 152,-16 244,-16 244,-35"/>
<text text-anchor="middle" x="198" y="-23" font-family="Helvetica,sans-Serif" font-size="10.00">SensorManager</text>
</a>
</g>
</g>
<!-- dir_dcdf07e3db1d9451f245332dc8b99070 -->
<g id="node4" class="node">
<title>dir_dcdf07e3db1d9451f245332dc8b99070</title>
<text text-anchor="middle" x="174" y="-78" font-family="Helvetica,sans-Serif" font-size="10.00">Database</text>
</g>
<!-- dir_0b3eed99154b4a0f883ec317e581ef4c -->
<g id="node5" class="node">
<title>dir_0b3eed99154b4a0f883ec317e581ef4c</title>
<g id="a_node5"><a xlink:href="dir_0b3eed99154b4a0f883ec317e581ef4c.html" target="_top" xlink:title="src">
<polygon fill="#a2b4d6" stroke="#404040" points="124.5,-90 93.5,-90 93.5,-71 124.5,-71 124.5,-90"/>
<text text-anchor="middle" x="109" y="-78" font-family="Helvetica,sans-Serif" font-size="10.00">src</text>
</a>
</g>
</g>
<!-- dir_0b3eed99154b4a0f883ec317e581ef4c&#45;&gt;dir_6d49f9c66bf3031a094bf79a5019d5a1 -->
<g id="edge3" class="edge">
<title>dir_0b3eed99154b4a0f883ec317e581ef4c&#45;&gt;dir_6d49f9c66bf3031a094bf79a5019d5a1</title>
<path fill="none" stroke="#63b8ff" d="M97.46,-70.51C87.54,-62.77 72.99,-51.43 61.14,-42.2"/>
<polygon fill="#63b8ff" stroke="#63b8ff" points="63.6,-39.68 53.56,-36.29 59.29,-45.2 63.6,-39.68"/>
<g id="a_edge3&#45;headlabel"><a xlink:href="dir_000007_000002.html" target="_top" xlink:title="2">
<text text-anchor="middle" x="66.98" y="-36.22" font-family="Helvetica,sans-Serif" font-size="10.00" fill="#63b8ff">2</text>
</a>
</g>
</g>
<!-- dir_0b3eed99154b4a0f883ec317e581ef4c&#45;&gt;dir_209f74e9e5592987b0e286406059eba2 -->
<g id="edge1" class="edge">
<title>dir_0b3eed99154b4a0f883ec317e581ef4c&#45;&gt;dir_209f74e9e5592987b0e286406059eba2</title>
<path fill="none" stroke="#63b8ff" d="M109,-70.75C109,-64.27 109,-55.16 109,-46.9"/>
<polygon fill="#63b8ff" stroke="#63b8ff" points="112.5,-46.96 109,-36.96 105.5,-46.96 112.5,-46.96"/>
<g id="a_edge1&#45;headlabel"><a xlink:href="dir_000007_000005.html" target="_top" xlink:title="2">
<text text-anchor="middle" x="115.34" y="-46.54" font-family="Helvetica,sans-Serif" font-size="10.00" fill="#63b8ff">2</text>
</a>
</g>
</g>
<!-- dir_0b3eed99154b4a0f883ec317e581ef4c&#45;&gt;dir_312f761766ee36a9027b1b553438f0c0 -->
<g id="edge2" class="edge">
<title>dir_0b3eed99154b4a0f883ec317e581ef4c&#45;&gt;dir_312f761766ee36a9027b1b553438f0c0</title>
<path fill="none" stroke="#63b8ff" d="M122.13,-70.6C125.93,-68.09 130.1,-65.4 134,-63 146.27,-55.47 160.12,-47.5 171.79,-40.94"/>
<polygon fill="#63b8ff" stroke="#63b8ff" points="173.44,-44.03 180.46,-36.1 170.03,-37.92 173.44,-44.03"/>
<g id="a_edge2&#45;headlabel"><a xlink:href="dir_000007_000006.html" target="_top" xlink:title="1">
<text text-anchor="middle" x="173" y="-45.02" font-family="Helvetica,sans-Serif" font-size="10.00" fill="#63b8ff">1</text>
</a>
</g>
</g>
</g>
</svg>
