<?xml version="1.0" encoding="UTF-8" standalone="no"?>
<!DOCTYPE svg PUBLIC "-//W3C//DTD SVG 1.1//EN"
 "http://www.w3.org/Graphics/SVG/1.1/DTD/svg11.dtd">
<!-- Generated by graphviz version 7.0.2 (0)
 -->
<!-- Title: lib/Sensor/Health.cpp Pages: 1 -->
<svg width="616pt" height="137pt"
 viewBox="0.00 0.00 615.50 137.00" xmlns="http://www.w3.org/2000/svg" xmlns:xlink="http://www.w3.org/1999/xlink">
<g id="graph0" class="graph" transform="scale(1 1) rotate(0) translate(4 133)">
<title>lib/Sensor/Health.cpp</title>
<!-- Node1 -->
<g id="node1" class="node">
<title>Node1</title>
<g id="a_node1"><a xlink:title=" ">
<polygon fill="#999999" stroke="#666666" points="437,-129 317,-129 317,-110 437,-110 437,-129"/>
<text text-anchor="middle" x="377" y="-117" font-family="Helvetica,sans-Serif" font-size="10.00">lib/Sensor/Health.cpp</text>
</a>
</g>
</g>
<!-- Node2 -->
<g id="node2" class="node">
<title>Node2</title>
<g id="a_node2"><a xlink:href="Sensor_8h.html" target="_top" xlink:title=" ">
<polygon fill="white" stroke="#666666" points="310,-74 252,-74 252,-55 310,-55 310,-74"/>
<text text-anchor="middle" x="281" y="-62" font-family="Helvetica,sans-Serif" font-size="10.00">Sensor.h</text>
</a>
</g>
</g>
<!-- Node1&#45;&gt;Node2 -->
<g id="edge1" class="edge">
<title>Node1&#45;&gt;Node2</title>
<path fill="none" stroke="#63b8ff" d="M360.71,-109.51C346.01,-101.39 324.11,-89.3 306.98,-79.85"/>
<polygon fill="#63b8ff" stroke="#63b8ff" points="308.82,-76.86 298.37,-75.09 305.43,-82.99 308.82,-76.86"/>
</g>
<!-- Node3 -->
<g id="node3" class="node">
<title>Node3</title>
<g id="a_node3"><a xlink:title=" ">
<polygon fill="#e0e0e0" stroke="#999999" points="607.5,-19 544.5,-19 544.5,0 607.5,0 607.5,-19"/>
<text text-anchor="middle" x="576" y="-7" font-family="Helvetica,sans-Serif" font-size="10.00">Arduino.h</text>
</a>
</g>
</g>
<!-- Node1&#45;&gt;Node3 -->
<g id="edge8" class="edge">
<title>Node1&#45;&gt;Node3</title>
<path fill="none" stroke="#63b8ff" d="M369.61,-109.73C359.41,-96.51 343.68,-71.28 357,-55 405.91,4.79 451.81,-31.72 533.06,-19.11"/>
<polygon fill="#63b8ff" stroke="#63b8ff" points="533.51,-22.59 542.73,-17.37 532.27,-15.7 533.51,-22.59"/>
</g>
<!-- Node4 -->
<g id="node4" class="node">
<title>Node4</title>
<g id="a_node4"><a xlink:title=" ">
<polygon fill="#e0e0e0" stroke="#999999" points="78,-19 0,-19 0,0 78,0 78,-19"/>
<text text-anchor="middle" x="39" y="-7" font-family="Helvetica,sans-Serif" font-size="10.00">MAX30105.h</text>
</a>
</g>
</g>
<!-- Node1&#45;&gt;Node4 -->
<g id="edge11" class="edge">
<title>Node1&#45;&gt;Node4</title>
<path fill="none" stroke="#63b8ff" d="M349.05,-109.57C288.82,-90.33 146.67,-44.9 77.78,-22.89"/>
<polygon fill="#63b8ff" stroke="#63b8ff" points="79.01,-19.61 68.42,-19.9 76.88,-26.28 79.01,-19.61"/>
</g>
<!-- Node9 -->
<g id="node9" class="node">
<title>Node9</title>
<g id="a_node9"><a xlink:title=" ">
<polygon fill="#e0e0e0" stroke="#999999" points="467.5,-74 366.5,-74 366.5,-55 467.5,-55 467.5,-74"/>
<text text-anchor="middle" x="417" y="-62" font-family="Helvetica,sans-Serif" font-size="10.00">spo2_algorithm.h</text>
</a>
</g>
</g>
<!-- Node1&#45;&gt;Node9 -->
<g id="edge9" class="edge">
<title>Node1&#45;&gt;Node9</title>
<path fill="none" stroke="#63b8ff" d="M383.61,-109.75C388.96,-102.66 396.68,-92.42 403.35,-83.59"/>
<polygon fill="#63b8ff" stroke="#63b8ff" points="406.11,-85.74 409.34,-75.65 400.52,-81.52 406.11,-85.74"/>
</g>
<!-- Node10 -->
<g id="node10" class="node">
<title>Node10</title>
<g id="a_node10"><a xlink:href="Array_8h.html" target="_top" xlink:title=" ">
<polygon fill="white" stroke="#666666" points="536,-74 486,-74 486,-55 536,-55 536,-74"/>
<text text-anchor="middle" x="511" y="-62" font-family="Helvetica,sans-Serif" font-size="10.00">Array.h</text>
</a>
</g>
</g>
<!-- Node1&#45;&gt;Node10 -->
<g id="edge10" class="edge">
<title>Node1&#45;&gt;Node10</title>
<path fill="none" stroke="#63b8ff" d="M399.73,-109.51C421.23,-101.01 453.73,-88.15 478.07,-78.53"/>
<polygon fill="#63b8ff" stroke="#63b8ff" points="479.19,-81.85 487.2,-74.91 476.61,-75.34 479.19,-81.85"/>
</g>
<!-- Node11 -->
<g id="node11" class="node">
<title>Node11</title>
<g id="a_node11"><a xlink:href="Misc_8h.html" target="_top" xlink:title=" ">
<polygon fill="white" stroke="#666666" points="602,-74 554,-74 554,-55 602,-55 602,-74"/>
<text text-anchor="middle" x="578" y="-62" font-family="Helvetica,sans-Serif" font-size="10.00">Misc.h</text>
</a>
</g>
</g>
<!-- Node1&#45;&gt;Node11 -->
<g id="edge12" class="edge">
<title>Node1&#45;&gt;Node11</title>
<path fill="none" stroke="#63b8ff" d="M411.1,-109.51C447.74,-99.85 505.7,-84.56 542.77,-74.79"/>
<polygon fill="#63b8ff" stroke="#63b8ff" points="543.32,-78.26 552.1,-72.33 541.54,-71.5 543.32,-78.26"/>
</g>
<!-- Node2&#45;&gt;Node3 -->
<g id="edge2" class="edge">
<title>Node2&#45;&gt;Node3</title>
<path fill="none" stroke="#63b8ff" d="M310.12,-57.64C314.76,-56.73 319.51,-55.83 324,-55 414.09,-38.41 439.65,-36.76 533.12,-19.29"/>
<polygon fill="#63b8ff" stroke="#63b8ff" points="533.57,-22.77 542.75,-17.48 532.28,-15.89 533.57,-22.77"/>
</g>
<!-- Node2&#45;&gt;Node4 -->
<g id="edge3" class="edge">
<title>Node2&#45;&gt;Node4</title>
<path fill="none" stroke="#63b8ff" d="M251.81,-57.11C211.57,-48.29 138.48,-32.29 89.33,-21.52"/>
<polygon fill="#63b8ff" stroke="#63b8ff" points="90.31,-18.15 79.79,-19.43 88.81,-24.99 90.31,-18.15"/>
</g>
<!-- Node5 -->
<g id="node5" class="node">
<title>Node5</title>
<g id="a_node5"><a xlink:title=" ">
<polygon fill="#e0e0e0" stroke="#999999" points="212,-19 96,-19 96,0 212,0 212,-19"/>
<text text-anchor="middle" x="154" y="-7" font-family="Helvetica,sans-Serif" font-size="10.00">Adafruit_MPU6050.h</text>
</a>
</g>
</g>
<!-- Node2&#45;&gt;Node5 -->
<g id="edge4" class="edge">
<title>Node2&#45;&gt;Node5</title>
<path fill="none" stroke="#63b8ff" d="M259.46,-54.51C239.26,-46.08 208.83,-33.38 185.84,-23.79"/>
<polygon fill="#63b8ff" stroke="#63b8ff" points="187.2,-20.56 176.62,-19.94 184.5,-27.02 187.2,-20.56"/>
</g>
<!-- Node6 -->
<g id="node6" class="node">
<title>Node6</title>
<g id="a_node6"><a xlink:title=" ">
<polygon fill="#e0e0e0" stroke="#999999" points="332,-19 230,-19 230,0 332,0 332,-19"/>
<text text-anchor="middle" x="281" y="-7" font-family="Helvetica,sans-Serif" font-size="10.00">Adafruit_Sensor.h</text>
</a>
</g>
</g>
<!-- Node2&#45;&gt;Node6 -->
<g id="edge5" class="edge">
<title>Node2&#45;&gt;Node6</title>
<path fill="none" stroke="#63b8ff" d="M281,-54.75C281,-48.27 281,-39.16 281,-30.9"/>
<polygon fill="#63b8ff" stroke="#63b8ff" points="284.5,-30.96 281,-20.96 277.5,-30.96 284.5,-30.96"/>
</g>
<!-- Node7 -->
<g id="node7" class="node">
<title>Node7</title>
<g id="a_node7"><a xlink:title=" ">
<polygon fill="#e0e0e0" stroke="#999999" points="398,-19 350,-19 350,0 398,0 398,-19"/>
<text text-anchor="middle" x="374" y="-7" font-family="Helvetica,sans-Serif" font-size="10.00">Wire.h</text>
</a>
</g>
</g>
<!-- Node2&#45;&gt;Node7 -->
<g id="edge6" class="edge">
<title>Node2&#45;&gt;Node7</title>
<path fill="none" stroke="#63b8ff" d="M296.78,-54.51C311.02,-46.39 332.24,-34.3 348.83,-24.85"/>
<polygon fill="#63b8ff" stroke="#63b8ff" points="350.19,-28.1 357.14,-20.11 346.72,-22.02 350.19,-28.1"/>
</g>
<!-- Node8 -->
<g id="node8" class="node">
<title>Node8</title>
<g id="a_node8"><a xlink:title=" ">
<polygon fill="#e0e0e0" stroke="#999999" points="526,-19 416,-19 416,0 526,0 526,-19"/>
<text text-anchor="middle" x="471" y="-7" font-family="Helvetica,sans-Serif" font-size="10.00">json/FirebaseJson.h</text>
</a>
</g>
</g>
<!-- Node2&#45;&gt;Node8 -->
<g id="edge7" class="edge">
<title>Node2&#45;&gt;Node8</title>
<path fill="none" stroke="#63b8ff" d="M310.27,-55.33C341.78,-46.55 392.21,-32.48 428.17,-22.45"/>
<polygon fill="#63b8ff" stroke="#63b8ff" points="428.68,-25.94 437.38,-19.88 426.8,-19.19 428.68,-25.94"/>
</g>
<!-- Node11&#45;&gt;Node3 -->
<g id="edge13" class="edge">
<title>Node11&#45;&gt;Node3</title>
<path fill="none" stroke="#63b8ff" d="M577.67,-54.75C577.43,-48.27 577.08,-39.16 576.77,-30.9"/>
<polygon fill="#63b8ff" stroke="#63b8ff" points="580.27,-30.82 576.39,-20.95 573.27,-31.08 580.27,-30.82"/>
</g>
</g>
</svg>
