<?xml version="1.0" encoding="UTF-8" standalone="no"?>
<!DOCTYPE svg PUBLIC "-//W3C//DTD SVG 1.1//EN"
 "http://www.w3.org/Graphics/SVG/1.1/DTD/svg11.dtd">
<!-- Generated by graphviz version 7.0.2 (0)
 -->
<!-- Title: lib/Internet/Internet.cpp Pages: 1 -->
<svg width="340pt" height="137pt"
 viewBox="0.00 0.00 340.00 137.00" xmlns="http://www.w3.org/2000/svg" xmlns:xlink="http://www.w3.org/1999/xlink">
<g id="graph0" class="graph" transform="scale(1 1) rotate(0) translate(4 133)">
<title>lib/Internet/Internet.cpp</title>
<!-- Node1 -->
<g id="node1" class="node">
<title>Node1</title>
<g id="a_node1"><a xlink:title=" ">
<polygon fill="#999999" stroke="#666666" points="243.5,-129 112.5,-129 112.5,-110 243.5,-110 243.5,-129"/>
<text text-anchor="middle" x="178" y="-117" font-family="Helvetica,sans-Serif" font-size="10.00">lib/Internet/Internet.cpp</text>
</a>
</g>
</g>
<!-- Node2 -->
<g id="node2" class="node">
<title>Node2</title>
<g id="a_node2"><a xlink:href="Internet_8h.html" target="_top" xlink:title=" ">
<polygon fill="white" stroke="#666666" points="64,-74 0,-74 0,-55 64,-55 64,-74"/>
<text text-anchor="middle" x="32" y="-62" font-family="Helvetica,sans-Serif" font-size="10.00">Internet.h</text>
</a>
</g>
</g>
<!-- Node1&#45;&gt;Node2 -->
<g id="edge1" class="edge">
<title>Node1&#45;&gt;Node2</title>
<path fill="none" stroke="#63b8ff" d="M153.23,-109.51C129.6,-100.93 93.76,-87.92 67.17,-78.27"/>
<polygon fill="#63b8ff" stroke="#63b8ff" points="68.42,-75 57.82,-74.87 66.03,-81.58 68.42,-75"/>
</g>
<!-- Node4 -->
<g id="node4" class="node">
<title>Node4</title>
<g id="a_node4"><a xlink:title=" ">
<polygon fill="#e0e0e0" stroke="#999999" points="171.5,-74 82.5,-74 82.5,-55 171.5,-55 171.5,-74"/>
<text text-anchor="middle" x="127" y="-62" font-family="Helvetica,sans-Serif" font-size="10.00">WiFiManager.h</text>
</a>
</g>
</g>
<!-- Node1&#45;&gt;Node4 -->
<g id="edge3" class="edge">
<title>Node1&#45;&gt;Node4</title>
<path fill="none" stroke="#63b8ff" d="M169.58,-109.75C162.53,-102.43 152.27,-91.76 143.59,-82.74"/>
<polygon fill="#63b8ff" stroke="#63b8ff" points="146.11,-80.31 136.65,-75.53 141.07,-85.17 146.11,-80.31"/>
</g>
<!-- Node5 -->
<g id="node5" class="node">
<title>Node5</title>
<g id="a_node5"><a xlink:href="DeviceInfo_8h.html" target="_top" xlink:title=" ">
<polygon fill="white" stroke="#666666" points="268,-74 190,-74 190,-55 268,-55 268,-74"/>
<text text-anchor="middle" x="229" y="-62" font-family="Helvetica,sans-Serif" font-size="10.00">DeviceInfo.h</text>
</a>
</g>
</g>
<!-- Node1&#45;&gt;Node5 -->
<g id="edge4" class="edge">
<title>Node1&#45;&gt;Node5</title>
<path fill="none" stroke="#63b8ff" d="M186.42,-109.75C193.47,-102.43 203.73,-91.76 212.41,-82.74"/>
<polygon fill="#63b8ff" stroke="#63b8ff" points="214.93,-85.17 219.35,-75.53 209.89,-80.31 214.93,-85.17"/>
</g>
<!-- Node6 -->
<g id="node6" class="node">
<title>Node6</title>
<g id="a_node6"><a xlink:title=" ">
<polygon fill="#e0e0e0" stroke="#999999" points="332,-74 286,-74 286,-55 332,-55 332,-74"/>
<text text-anchor="middle" x="309" y="-62" font-family="Helvetica,sans-Serif" font-size="10.00">cstdio</text>
</a>
</g>
</g>
<!-- Node1&#45;&gt;Node6 -->
<g id="edge6" class="edge">
<title>Node1&#45;&gt;Node6</title>
<path fill="none" stroke="#63b8ff" d="M200.22,-109.51C221.14,-101.04 252.73,-88.27 276.48,-78.66"/>
<polygon fill="#63b8ff" stroke="#63b8ff" points="277.75,-81.92 285.7,-74.93 275.12,-75.43 277.75,-81.92"/>
</g>
<!-- Node3 -->
<g id="node3" class="node">
<title>Node3</title>
<g id="a_node3"><a xlink:title=" ">
<polygon fill="#e0e0e0" stroke="#999999" points="161.5,-19 98.5,-19 98.5,0 161.5,0 161.5,-19"/>
<text text-anchor="middle" x="130" y="-7" font-family="Helvetica,sans-Serif" font-size="10.00">Arduino.h</text>
</a>
</g>
</g>
<!-- Node2&#45;&gt;Node3 -->
<g id="edge2" class="edge">
<title>Node2&#45;&gt;Node3</title>
<path fill="none" stroke="#63b8ff" d="M48.62,-54.51C63.78,-46.31 86.42,-34.07 103.97,-24.58"/>
<polygon fill="#63b8ff" stroke="#63b8ff" points="105.16,-27.91 112.29,-20.08 101.83,-21.76 105.16,-27.91"/>
</g>
<!-- Node5&#45;&gt;Node3 -->
<g id="edge5" class="edge">
<title>Node5&#45;&gt;Node3</title>
<path fill="none" stroke="#63b8ff" d="M212.21,-54.51C196.9,-46.31 174.03,-34.07 156.3,-24.58"/>
<polygon fill="#63b8ff" stroke="#63b8ff" points="158.35,-21.71 147.88,-20.07 155.04,-27.88 158.35,-21.71"/>
</g>
</g>
</svg>
