<?xml version="1.0" encoding="UTF-8" standalone="no"?>
<!DOCTYPE svg PUBLIC "-//W3C//DTD SVG 1.1//EN"
 "http://www.w3.org/Graphics/SVG/1.1/DTD/svg11.dtd">
<!-- Generated by graphviz version 7.0.2 (0)
 -->
<!-- Title: src/main.cpp Pages: 1 -->
<svg width="1155pt" height="247pt"
 viewBox="0.00 0.00 1155.00 247.00" xmlns="http://www.w3.org/2000/svg" xmlns:xlink="http://www.w3.org/1999/xlink">
<g id="graph0" class="graph" transform="scale(1 1) rotate(0) translate(4 243)">
<title>src/main.cpp</title>
<!-- Node1 -->
<g id="node1" class="node">
<title>Node1</title>
<g id="a_node1"><a xlink:title=" ">
<polygon fill="#999999" stroke="#666666" points="698.5,-239 619.5,-239 619.5,-220 698.5,-220 698.5,-239"/>
<text text-anchor="middle" x="659" y="-227" font-family="Helvetica,sans-Serif" font-size="10.00">src/main.cpp</text>
</a>
</g>
</g>
<!-- Node2 -->
<g id="node2" class="node">
<title>Node2</title>
<g id="a_node2"><a xlink:title=" ">
<polygon fill="#e0e0e0" stroke="#999999" points="607.5,-19 544.5,-19 544.5,0 607.5,0 607.5,-19"/>
<text text-anchor="middle" x="576" y="-7" font-family="Helvetica,sans-Serif" font-size="10.00">Arduino.h</text>
</a>
</g>
</g>
<!-- Node1&#45;&gt;Node2 -->
<g id="edge1" class="edge">
<title>Node1&#45;&gt;Node2</title>
<path fill="none" stroke="#63b8ff" d="M698.91,-229.13C776.28,-229.41 942.26,-225.08 978,-184 983.54,-177.63 982.78,-171.96 978,-165 895.31,-44.63 704.8,-18 619.12,-12.14"/>
<polygon fill="#63b8ff" stroke="#63b8ff" points="619.46,-8.65 609.26,-11.53 619.03,-15.64 619.46,-8.65"/>
</g>
<!-- Node3 -->
<g id="node3" class="node">
<title>Node3</title>
<g id="a_node3"><a xlink:href="Database_8h.html" target="_top" xlink:title=" ">
<polygon fill="white" stroke="#666666" points="401,-184 329,-184 329,-165 401,-165 401,-184"/>
<text text-anchor="middle" x="365" y="-172" font-family="Helvetica,sans-Serif" font-size="10.00">Database.h</text>
</a>
</g>
</g>
<!-- Node1&#45;&gt;Node3 -->
<g id="edge2" class="edge">
<title>Node1&#45;&gt;Node3</title>
<path fill="none" stroke="#63b8ff" d="M619.04,-221.3C565.28,-211.61 469.81,-194.39 412.46,-184.06"/>
<polygon fill="#63b8ff" stroke="#63b8ff" points="413.13,-180.62 402.66,-182.29 411.88,-187.51 413.13,-180.62"/>
</g>
<!-- Node6 -->
<g id="node6" class="node">
<title>Node6</title>
<g id="a_node6"><a xlink:href="Sensor_8h.html" target="_top" xlink:title=" ">
<polygon fill="white" stroke="#666666" points="334,-74 276,-74 276,-55 334,-55 334,-74"/>
<text text-anchor="middle" x="305" y="-62" font-family="Helvetica,sans-Serif" font-size="10.00">Sensor.h</text>
</a>
</g>
</g>
<!-- Node1&#45;&gt;Node6 -->
<g id="edge23" class="edge">
<title>Node1&#45;&gt;Node6</title>
<path fill="none" stroke="#63b8ff" d="M619.39,-227.44C508.69,-223.51 200.43,-205.76 144,-129 111.61,-84.95 206.61,-71.44 264.27,-67.31"/>
<polygon fill="#63b8ff" stroke="#63b8ff" points="264.33,-70.81 274.09,-66.68 263.88,-63.83 264.33,-70.81"/>
</g>
<!-- Node12 -->
<g id="node12" class="node">
<title>Node12</title>
<g id="a_node12"><a xlink:href="SensorManager_8h.html" target="_top" xlink:title=" ">
<polygon fill="white" stroke="#666666" points="516.5,-129 415.5,-129 415.5,-110 516.5,-110 516.5,-129"/>
<text text-anchor="middle" x="466" y="-117" font-family="Helvetica,sans-Serif" font-size="10.00">SensorManager.h</text>
</a>
</g>
</g>
<!-- Node1&#45;&gt;Node12 -->
<g id="edge24" class="edge">
<title>Node1&#45;&gt;Node12</title>
<path fill="none" stroke="#63b8ff" d="M619.28,-221.89C589.99,-215.63 550.15,-204.1 520,-184 502.17,-172.12 486.9,-152.74 477.2,-138.51"/>
<polygon fill="#63b8ff" stroke="#63b8ff" points="480.37,-136.97 471.98,-130.51 474.51,-140.8 480.37,-136.97"/>
</g>
<!-- Node14 -->
<g id="node14" class="node">
<title>Node14</title>
<g id="a_node14"><a xlink:title=" ">
<polygon fill="#e0e0e0" stroke="#999999" points="639.5,-184 562.5,-184 562.5,-165 639.5,-165 639.5,-184"/>
<text text-anchor="middle" x="601" y="-172" font-family="Helvetica,sans-Serif" font-size="10.00">DNSServer.h</text>
</a>
</g>
</g>
<!-- Node1&#45;&gt;Node14 -->
<g id="edge16" class="edge">
<title>Node1&#45;&gt;Node14</title>
<path fill="none" stroke="#63b8ff" d="M649.16,-219.51C640.95,-212 629.02,-201.1 619.09,-192.03"/>
<polygon fill="#63b8ff" stroke="#63b8ff" points="621.55,-189.54 611.81,-185.38 616.83,-194.71 621.55,-189.54"/>
</g>
<!-- Node15 -->
<g id="node15" class="node">
<title>Node15</title>
<g id="a_node15"><a xlink:title=" ">
<polygon fill="#e0e0e0" stroke="#999999" points="776.5,-184 657.5,-184 657.5,-165 776.5,-165 776.5,-184"/>
<text text-anchor="middle" x="717" y="-172" font-family="Helvetica,sans-Serif" font-size="10.00">ESP8266WebServer.h</text>
</a>
</g>
</g>
<!-- Node1&#45;&gt;Node15 -->
<g id="edge17" class="edge">
<title>Node1&#45;&gt;Node15</title>
<path fill="none" stroke="#63b8ff" d="M668.84,-219.51C677.05,-212 688.98,-201.1 698.91,-192.03"/>
<polygon fill="#63b8ff" stroke="#63b8ff" points="701.17,-194.71 706.19,-185.38 696.45,-189.54 701.17,-194.71"/>
</g>
<!-- Node16 -->
<g id="node16" class="node">
<title>Node16</title>
<g id="a_node16"><a xlink:title=" ">
<polygon fill="#e0e0e0" stroke="#999999" points="883.5,-184 794.5,-184 794.5,-165 883.5,-165 883.5,-184"/>
<text text-anchor="middle" x="839" y="-172" font-family="Helvetica,sans-Serif" font-size="10.00">WiFiManager.h</text>
</a>
</g>
</g>
<!-- Node1&#45;&gt;Node16 -->
<g id="edge18" class="edge">
<title>Node1&#45;&gt;Node16</title>
<path fill="none" stroke="#63b8ff" d="M689.53,-219.51C719.36,-210.73 764.96,-197.3 797.95,-187.59"/>
<polygon fill="#63b8ff" stroke="#63b8ff" points="798.56,-191.06 807.16,-184.87 796.58,-184.34 798.56,-191.06"/>
</g>
<!-- Node17 -->
<g id="node17" class="node">
<title>Node17</title>
<g id="a_node17"><a xlink:title=" ">
<polygon fill="#e0e0e0" stroke="#999999" points="968.5,-184 901.5,-184 901.5,-165 968.5,-165 968.5,-184"/>
<text text-anchor="middle" x="935" y="-172" font-family="Helvetica,sans-Serif" font-size="10.00">EEPROM.h</text>
</a>
</g>
</g>
<!-- Node1&#45;&gt;Node17 -->
<g id="edge19" class="edge">
<title>Node1&#45;&gt;Node17</title>
<path fill="none" stroke="#63b8ff" d="M698.77,-221.08C743.08,-212.79 817.15,-198.83 889.89,-184.59"/>
<polygon fill="#63b8ff" stroke="#63b8ff" points="890.46,-188.05 899.6,-182.69 889.11,-181.18 890.46,-188.05"/>
</g>
<!-- Node18 -->
<g id="node18" class="node">
<title>Node18</title>
<g id="a_node18"><a xlink:href="Internet_8h.html" target="_top" xlink:title=" ">
<polygon fill="white" stroke="#666666" points="608,-74 544,-74 544,-55 608,-55 608,-74"/>
<text text-anchor="middle" x="576" y="-62" font-family="Helvetica,sans-Serif" font-size="10.00">Internet.h</text>
</a>
</g>
</g>
<!-- Node1&#45;&gt;Node18 -->
<g id="edge20" class="edge">
<title>Node1&#45;&gt;Node18</title>
<path fill="none" stroke="#63b8ff" d="M619.02,-222.8C595.52,-217.17 567.64,-206.02 553,-184 532.68,-153.43 550.94,-109.21 564.49,-84.34"/>
<polygon fill="#63b8ff" stroke="#63b8ff" points="567.51,-86.11 569.48,-75.7 561.45,-82.61 567.51,-86.11"/>
</g>
<!-- Node19 -->
<g id="node19" class="node">
<title>Node19</title>
<g id="a_node19"><a xlink:title=" ">
<polygon fill="#e0e0e0" stroke="#999999" points="1147,-184 1025,-184 1025,-165 1147,-165 1147,-184"/>
<text text-anchor="middle" x="1086" y="-172" font-family="Helvetica,sans-Serif" font-size="10.00">addons/RTDBHelper.h</text>
</a>
</g>
</g>
<!-- Node1&#45;&gt;Node19 -->
<g id="edge22" class="edge">
<title>Node1&#45;&gt;Node19</title>
<path fill="none" stroke="#63b8ff" d="M698.79,-223.56C770.56,-214.65 922.66,-195.77 1013.4,-184.51"/>
<polygon fill="#63b8ff" stroke="#63b8ff" points="1013.7,-188 1023.2,-183.3 1012.84,-181.05 1013.7,-188"/>
</g>
<!-- Node4 -->
<g id="node4" class="node">
<title>Node4</title>
<g id="a_node4"><a xlink:title=" ">
<polygon fill="#e0e0e0" stroke="#999999" points="397,-129 333,-129 333,-110 397,-110 397,-129"/>
<text text-anchor="middle" x="365" y="-117" font-family="Helvetica,sans-Serif" font-size="10.00">WString.h</text>
</a>
</g>
</g>
<!-- Node3&#45;&gt;Node4 -->
<g id="edge3" class="edge">
<title>Node3&#45;&gt;Node4</title>
<path fill="none" stroke="#63b8ff" d="M365,-164.75C365,-158.27 365,-149.16 365,-140.9"/>
<polygon fill="#63b8ff" stroke="#63b8ff" points="368.5,-140.96 365,-130.96 361.5,-140.96 368.5,-140.96"/>
</g>
<!-- Node5 -->
<g id="node5" class="node">
<title>Node5</title>
<g id="a_node5"><a xlink:title=" ">
<polygon fill="#e0e0e0" stroke="#999999" points="277,-129 153,-129 153,-110 277,-110 277,-129"/>
<text text-anchor="middle" x="215" y="-117" font-family="Helvetica,sans-Serif" font-size="10.00">Firebase_ESP_Client.h</text>
</a>
</g>
</g>
<!-- Node3&#45;&gt;Node5 -->
<g id="edge4" class="edge">
<title>Node3&#45;&gt;Node5</title>
<path fill="none" stroke="#63b8ff" d="M339.55,-164.51C315.24,-155.92 278.34,-142.88 251.01,-133.22"/>
<polygon fill="#63b8ff" stroke="#63b8ff" points="252.34,-129.98 241.75,-129.95 250.01,-136.58 252.34,-129.98"/>
</g>
<!-- Node3&#45;&gt;Node6 -->
<g id="edge5" class="edge">
<title>Node3&#45;&gt;Node6</title>
<path fill="none" stroke="#63b8ff" d="M354.47,-164.63C345.22,-156.31 332,-143.06 324,-129 316.23,-115.36 311.35,-98.23 308.48,-85.2"/>
<polygon fill="#63b8ff" stroke="#63b8ff" points="311.98,-84.83 306.61,-75.69 305.11,-86.18 311.98,-84.83"/>
</g>
<!-- Node3&#45;&gt;Node12 -->
<g id="edge12" class="edge">
<title>Node3&#45;&gt;Node12</title>
<path fill="none" stroke="#63b8ff" d="M382.13,-164.51C397.75,-156.31 421.08,-144.07 439.17,-134.58"/>
<polygon fill="#63b8ff" stroke="#63b8ff" points="440.55,-137.81 447.78,-130.06 437.3,-131.61 440.55,-137.81"/>
</g>
<!-- Node6&#45;&gt;Node2 -->
<g id="edge6" class="edge">
<title>Node6&#45;&gt;Node2</title>
<path fill="none" stroke="#63b8ff" d="M334.43,-57.94C376.24,-50 455.48,-34.86 533.26,-19.33"/>
<polygon fill="#63b8ff" stroke="#63b8ff" points="533.62,-22.82 542.74,-17.43 532.25,-15.96 533.62,-22.82"/>
</g>
<!-- Node7 -->
<g id="node7" class="node">
<title>Node7</title>
<g id="a_node7"><a xlink:title=" ">
<polygon fill="#e0e0e0" stroke="#999999" points="78,-19 0,-19 0,0 78,0 78,-19"/>
<text text-anchor="middle" x="39" y="-7" font-family="Helvetica,sans-Serif" font-size="10.00">MAX30105.h</text>
</a>
</g>
</g>
<!-- Node6&#45;&gt;Node7 -->
<g id="edge7" class="edge">
<title>Node6&#45;&gt;Node7</title>
<path fill="none" stroke="#63b8ff" d="M275.52,-57.63C230.56,-48.67 144.31,-31.48 89.31,-20.52"/>
<polygon fill="#63b8ff" stroke="#63b8ff" points="90.06,-17.1 79.56,-18.58 88.69,-23.97 90.06,-17.1"/>
</g>
<!-- Node8 -->
<g id="node8" class="node">
<title>Node8</title>
<g id="a_node8"><a xlink:title=" ">
<polygon fill="#e0e0e0" stroke="#999999" points="212,-19 96,-19 96,0 212,0 212,-19"/>
<text text-anchor="middle" x="154" y="-7" font-family="Helvetica,sans-Serif" font-size="10.00">Adafruit_MPU6050.h</text>
</a>
</g>
</g>
<!-- Node6&#45;&gt;Node8 -->
<g id="edge8" class="edge">
<title>Node6&#45;&gt;Node8</title>
<path fill="none" stroke="#63b8ff" d="M279.38,-54.51C254.91,-45.92 217.76,-32.88 190.25,-23.22"/>
<polygon fill="#63b8ff" stroke="#63b8ff" points="191.51,-19.96 180.92,-19.95 189.19,-26.56 191.51,-19.96"/>
</g>
<!-- Node9 -->
<g id="node9" class="node">
<title>Node9</title>
<g id="a_node9"><a xlink:title=" ">
<polygon fill="#e0e0e0" stroke="#999999" points="332,-19 230,-19 230,0 332,0 332,-19"/>
<text text-anchor="middle" x="281" y="-7" font-family="Helvetica,sans-Serif" font-size="10.00">Adafruit_Sensor.h</text>
</a>
</g>
</g>
<!-- Node6&#45;&gt;Node9 -->
<g id="edge9" class="edge">
<title>Node6&#45;&gt;Node9</title>
<path fill="none" stroke="#63b8ff" d="M301.04,-54.75C297.96,-47.96 293.59,-38.3 289.71,-29.73"/>
<polygon fill="#63b8ff" stroke="#63b8ff" points="292.99,-28.49 285.67,-20.82 286.61,-31.37 292.99,-28.49"/>
</g>
<!-- Node10 -->
<g id="node10" class="node">
<title>Node10</title>
<g id="a_node10"><a xlink:title=" ">
<polygon fill="#e0e0e0" stroke="#999999" points="398,-19 350,-19 350,0 398,0 398,-19"/>
<text text-anchor="middle" x="374" y="-7" font-family="Helvetica,sans-Serif" font-size="10.00">Wire.h</text>
</a>
</g>
</g>
<!-- Node6&#45;&gt;Node10 -->
<g id="edge10" class="edge">
<title>Node6&#45;&gt;Node10</title>
<path fill="none" stroke="#63b8ff" d="M316.7,-54.51C326.78,-46.77 341.54,-35.43 353.56,-26.2"/>
<polygon fill="#63b8ff" stroke="#63b8ff" points="355.47,-29.15 361.27,-20.28 351.21,-23.6 355.47,-29.15"/>
</g>
<!-- Node11 -->
<g id="node11" class="node">
<title>Node11</title>
<g id="a_node11"><a xlink:title=" ">
<polygon fill="#e0e0e0" stroke="#999999" points="526,-19 416,-19 416,0 526,0 526,-19"/>
<text text-anchor="middle" x="471" y="-7" font-family="Helvetica,sans-Serif" font-size="10.00">json/FirebaseJson.h</text>
</a>
</g>
</g>
<!-- Node6&#45;&gt;Node11 -->
<g id="edge11" class="edge">
<title>Node6&#45;&gt;Node11</title>
<path fill="none" stroke="#63b8ff" d="M333.16,-54.51C360.43,-45.8 401.99,-32.53 432.35,-22.84"/>
<polygon fill="#63b8ff" stroke="#63b8ff" points="433.08,-26.28 441.54,-19.91 430.95,-19.61 433.08,-26.28"/>
</g>
<!-- Node12&#45;&gt;Node6 -->
<g id="edge15" class="edge">
<title>Node12&#45;&gt;Node6</title>
<path fill="none" stroke="#63b8ff" d="M438.69,-109.51C412.36,-100.84 372.28,-87.65 342.87,-77.97"/>
<polygon fill="#63b8ff" stroke="#63b8ff" points="344.21,-74.72 333.61,-74.92 342.02,-81.37 344.21,-74.72"/>
</g>
<!-- Node13 -->
<g id="node13" class="node">
<title>Node13</title>
<g id="a_node13"><a xlink:href="AbnormalCondition_8h.html" target="_top" xlink:title=" ">
<polygon fill="white" stroke="#666666" points="525.5,-74 406.5,-74 406.5,-55 525.5,-55 525.5,-74"/>
<text text-anchor="middle" x="466" y="-62" font-family="Helvetica,sans-Serif" font-size="10.00">AbnormalCondition.h</text>
</a>
</g>
</g>
<!-- Node12&#45;&gt;Node13 -->
<g id="edge13" class="edge">
<title>Node12&#45;&gt;Node13</title>
<path fill="none" stroke="#63b8ff" d="M466,-109.75C466,-103.27 466,-94.16 466,-85.9"/>
<polygon fill="#63b8ff" stroke="#63b8ff" points="469.5,-85.96 466,-75.96 462.5,-85.96 469.5,-85.96"/>
</g>
<!-- Node13&#45;&gt;Node2 -->
<g id="edge14" class="edge">
<title>Node13&#45;&gt;Node2</title>
<path fill="none" stroke="#63b8ff" d="M484.66,-54.51C501.83,-46.24 527.55,-33.84 547.33,-24.31"/>
<polygon fill="#63b8ff" stroke="#63b8ff" points="548.76,-27.51 556.25,-20.01 545.72,-21.2 548.76,-27.51"/>
</g>
<!-- Node18&#45;&gt;Node2 -->
<g id="edge21" class="edge">
<title>Node18&#45;&gt;Node2</title>
<path fill="none" stroke="#63b8ff" d="M576,-54.75C576,-48.27 576,-39.16 576,-30.9"/>
<polygon fill="#63b8ff" stroke="#63b8ff" points="579.5,-30.96 576,-20.96 572.5,-30.96 579.5,-30.96"/>
</g>
</g>
</svg>
