<?xml version="1.0" encoding="UTF-8" standalone="no"?>
<!DOCTYPE svg PUBLIC "-//W3C//DTD SVG 1.1//EN"
 "http://www.w3.org/Graphics/SVG/1.1/DTD/svg11.dtd">
<!-- Generated by graphviz version 7.0.2 (0)
 -->
<!-- Title: lib/Sensor/Motion.cpp Pages: 1 -->
<svg width="616pt" height="137pt"
 viewBox="0.00 0.00 616.00 137.00" xmlns="http://www.w3.org/2000/svg" xmlns:xlink="http://www.w3.org/1999/xlink">
<g id="graph0" class="graph" transform="scale(1 1) rotate(0) translate(4 133)">
<title>lib/Sensor/Motion.cpp</title>
<!-- Node1 -->
<g id="node1" class="node">
<title>Node1</title>
<g id="a_node1"><a xlink:title=" ">
<polygon fill="#999999" stroke="#666666" points="456,-129 334,-129 334,-110 456,-110 456,-129"/>
<text text-anchor="middle" x="395" y="-117" font-family="Helvetica,sans-Serif" font-size="10.00">lib/Sensor/Motion.cpp</text>
</a>
</g>
</g>
<!-- Node2 -->
<g id="node2" class="node">
<title>Node2</title>
<g id="a_node2"><a xlink:href="Sensor_8h.html" target="_top" xlink:title=" ">
<polygon fill="white" stroke="#666666" points="396,-74 338,-74 338,-55 396,-55 396,-74"/>
<text text-anchor="middle" x="367" y="-62" font-family="Helvetica,sans-Serif" font-size="10.00">Sensor.h</text>
</a>
</g>
</g>
<!-- Node1&#45;&gt;Node2 -->
<g id="edge1" class="edge">
<title>Node1&#45;&gt;Node2</title>
<path fill="none" stroke="#63b8ff" d="M390.38,-109.75C386.75,-102.88 381.57,-93.08 377.01,-84.45"/>
<polygon fill="#63b8ff" stroke="#63b8ff" points="380.2,-82.99 372.43,-75.78 374.01,-86.26 380.2,-82.99"/>
</g>
<!-- Node5 -->
<g id="node5" class="node">
<title>Node5</title>
<g id="a_node5"><a xlink:title=" ">
<polygon fill="#e0e0e0" stroke="#999999" points="116,-19 0,-19 0,0 116,0 116,-19"/>
<text text-anchor="middle" x="58" y="-7" font-family="Helvetica,sans-Serif" font-size="10.00">Adafruit_MPU6050.h</text>
</a>
</g>
</g>
<!-- Node1&#45;&gt;Node5 -->
<g id="edge8" class="edge">
<title>Node1&#45;&gt;Node5</title>
<path fill="none" stroke="#63b8ff" d="M367.14,-109.57C307.08,-90.33 165.36,-44.9 96.66,-22.89"/>
<polygon fill="#63b8ff" stroke="#63b8ff" points="97.93,-19.62 87.34,-19.9 95.79,-26.29 97.93,-19.62"/>
</g>
<!-- Node6 -->
<g id="node6" class="node">
<title>Node6</title>
<g id="a_node6"><a xlink:title=" ">
<polygon fill="#e0e0e0" stroke="#999999" points="542,-19 440,-19 440,0 542,0 542,-19"/>
<text text-anchor="middle" x="491" y="-7" font-family="Helvetica,sans-Serif" font-size="10.00">Adafruit_Sensor.h</text>
</a>
</g>
</g>
<!-- Node1&#45;&gt;Node6 -->
<g id="edge9" class="edge">
<title>Node1&#45;&gt;Node6</title>
<path fill="none" stroke="#63b8ff" d="M402.86,-109.66C418.68,-91.86 454.64,-51.41 475.41,-28.04"/>
<polygon fill="#63b8ff" stroke="#63b8ff" points="478,-30.39 482.03,-20.59 472.77,-25.74 478,-30.39"/>
</g>
<!-- Node7 -->
<g id="node7" class="node">
<title>Node7</title>
<g id="a_node7"><a xlink:title=" ">
<polygon fill="#e0e0e0" stroke="#999999" points="608,-19 560,-19 560,0 608,0 608,-19"/>
<text text-anchor="middle" x="584" y="-7" font-family="Helvetica,sans-Serif" font-size="10.00">Wire.h</text>
</a>
</g>
</g>
<!-- Node1&#45;&gt;Node7 -->
<g id="edge10" class="edge">
<title>Node1&#45;&gt;Node7</title>
<path fill="none" stroke="#63b8ff" d="M410.47,-109.66C443,-91.07 518.78,-47.77 558.57,-25.03"/>
<polygon fill="#63b8ff" stroke="#63b8ff" points="560.06,-28.21 567.01,-20.21 556.59,-22.13 560.06,-28.21"/>
</g>
<!-- Node3 -->
<g id="node3" class="node">
<title>Node3</title>
<g id="a_node3"><a xlink:title=" ">
<polygon fill="#e0e0e0" stroke="#999999" points="197.5,-19 134.5,-19 134.5,0 197.5,0 197.5,-19"/>
<text text-anchor="middle" x="166" y="-7" font-family="Helvetica,sans-Serif" font-size="10.00">Arduino.h</text>
</a>
</g>
</g>
<!-- Node2&#45;&gt;Node3 -->
<g id="edge2" class="edge">
<title>Node2&#45;&gt;Node3</title>
<path fill="none" stroke="#63b8ff" d="M337.77,-55.79C303.88,-46.86 247.71,-32.05 208.88,-21.81"/>
<polygon fill="#63b8ff" stroke="#63b8ff" points="209.95,-18.47 199.38,-19.3 208.16,-25.24 209.95,-18.47"/>
</g>
<!-- Node4 -->
<g id="node4" class="node">
<title>Node4</title>
<g id="a_node4"><a xlink:title=" ">
<polygon fill="#e0e0e0" stroke="#999999" points="294,-19 216,-19 216,0 294,0 294,-19"/>
<text text-anchor="middle" x="255" y="-7" font-family="Helvetica,sans-Serif" font-size="10.00">MAX30105.h</text>
</a>
</g>
</g>
<!-- Node2&#45;&gt;Node4 -->
<g id="edge3" class="edge">
<title>Node2&#45;&gt;Node4</title>
<path fill="none" stroke="#63b8ff" d="M348,-54.51C330.44,-46.2 304.08,-33.73 283.91,-24.18"/>
<polygon fill="#63b8ff" stroke="#63b8ff" points="285.62,-21.12 275.09,-20.01 282.63,-27.45 285.62,-21.12"/>
</g>
<!-- Node2&#45;&gt;Node5 -->
<g id="edge4" class="edge">
<title>Node2&#45;&gt;Node5</title>
<path fill="none" stroke="#63b8ff" d="M337.65,-58.47C288.31,-50 187.64,-32.74 121.52,-21.39"/>
<polygon fill="#63b8ff" stroke="#63b8ff" points="122.35,-17.99 111.9,-19.74 121.16,-24.88 122.35,-17.99"/>
</g>
<!-- Node2&#45;&gt;Node6 -->
<g id="edge5" class="edge">
<title>Node2&#45;&gt;Node6</title>
<path fill="none" stroke="#63b8ff" d="M388.03,-54.51C407.75,-46.08 437.47,-33.38 459.91,-23.79"/>
<polygon fill="#63b8ff" stroke="#63b8ff" points="461.06,-27.1 468.88,-19.95 458.31,-20.66 461.06,-27.1"/>
</g>
<!-- Node2&#45;&gt;Node7 -->
<g id="edge6" class="edge">
<title>Node2&#45;&gt;Node7</title>
<path fill="none" stroke="#63b8ff" d="M396.35,-56.54C430.56,-48.4 489.09,-34.38 548.42,-19.62"/>
<polygon fill="#63b8ff" stroke="#63b8ff" points="549.18,-23.04 558.03,-17.22 547.48,-16.24 549.18,-23.04"/>
</g>
<!-- Node8 -->
<g id="node8" class="node">
<title>Node8</title>
<g id="a_node8"><a xlink:title=" ">
<polygon fill="#e0e0e0" stroke="#999999" points="422,-19 312,-19 312,0 422,0 422,-19"/>
<text text-anchor="middle" x="367" y="-7" font-family="Helvetica,sans-Serif" font-size="10.00">json/FirebaseJson.h</text>
</a>
</g>
</g>
<!-- Node2&#45;&gt;Node8 -->
<g id="edge7" class="edge">
<title>Node2&#45;&gt;Node8</title>
<path fill="none" stroke="#63b8ff" d="M367,-54.75C367,-48.27 367,-39.16 367,-30.9"/>
<polygon fill="#63b8ff" stroke="#63b8ff" points="370.5,-30.96 367,-20.96 363.5,-30.96 370.5,-30.96"/>
</g>
</g>
</svg>
