<?xml version="1.0" encoding="UTF-8" standalone="no"?>
<!DOCTYPE svg PUBLIC "-//W3C//DTD SVG 1.1//EN"
 "http://www.w3.org/Graphics/SVG/1.1/DTD/svg11.dtd">
<!-- Generated by graphviz version 7.0.2 (0)
 -->
<!-- Title: lib/Database/src/Send.cpp Pages: 1 -->
<svg width="764pt" height="247pt"
 viewBox="0.00 0.00 763.50 247.00" xmlns="http://www.w3.org/2000/svg" xmlns:xlink="http://www.w3.org/1999/xlink">
<g id="graph0" class="graph" transform="scale(1 1) rotate(0) translate(4 243)">
<title>lib/Database/src/Send.cpp</title>
<!-- Node1 -->
<g id="node1" class="node">
<title>Node1</title>
<g id="a_node1"><a xlink:title=" ">
<polygon fill="#999999" stroke="#666666" points="591.5,-239 448.5,-239 448.5,-220 591.5,-220 591.5,-239"/>
<text text-anchor="middle" x="520" y="-227" font-family="Helvetica,sans-Serif" font-size="10.00">lib/Database/src/Send.cpp</text>
</a>
</g>
</g>
<!-- Node2 -->
<g id="node2" class="node">
<title>Node2</title>
<g id="a_node2"><a xlink:href="Database_8h.html" target="_top" xlink:title=" ">
<polygon fill="white" stroke="#666666" points="322,-184 250,-184 250,-165 322,-165 322,-184"/>
<text text-anchor="middle" x="286" y="-172" font-family="Helvetica,sans-Serif" font-size="10.00">Database.h</text>
</a>
</g>
</g>
<!-- Node1&#45;&gt;Node2 -->
<g id="edge1" class="edge">
<title>Node1&#45;&gt;Node2</title>
<path fill="none" stroke="#63b8ff" d="M480.31,-219.51C439.73,-210.32 376.7,-196.04 333.5,-186.26"/>
<polygon fill="#63b8ff" stroke="#63b8ff" points="334.42,-182.88 323.9,-184.08 332.88,-189.71 334.42,-182.88"/>
</g>
<!-- Node5 -->
<g id="node5" class="node">
<title>Node5</title>
<g id="a_node5"><a xlink:href="Sensor_8h.html" target="_top" xlink:title=" ">
<polygon fill="white" stroke="#666666" points="316,-74 258,-74 258,-55 316,-55 316,-74"/>
<text text-anchor="middle" x="287" y="-62" font-family="Helvetica,sans-Serif" font-size="10.00">Sensor.h</text>
</a>
</g>
</g>
<!-- Node1&#45;&gt;Node5 -->
<g id="edge17" class="edge">
<title>Node1&#45;&gt;Node5</title>
<path fill="none" stroke="#63b8ff" d="M507.43,-219.6C496.21,-211.26 479.78,-198 468,-184 443.36,-154.73 453.89,-133.89 424,-110 408.88,-97.92 361.98,-84.18 327.24,-75.21"/>
<polygon fill="#63b8ff" stroke="#63b8ff" points="328.47,-71.91 317.92,-72.84 326.75,-78.69 328.47,-71.91"/>
</g>
<!-- Node6 -->
<g id="node6" class="node">
<title>Node6</title>
<g id="a_node6"><a xlink:title=" ">
<polygon fill="#e0e0e0" stroke="#999999" points="607.5,-19 544.5,-19 544.5,0 607.5,0 607.5,-19"/>
<text text-anchor="middle" x="576" y="-7" font-family="Helvetica,sans-Serif" font-size="10.00">Arduino.h</text>
</a>
</g>
</g>
<!-- Node1&#45;&gt;Node6 -->
<g id="edge15" class="edge">
<title>Node1&#45;&gt;Node6</title>
<path fill="none" stroke="#63b8ff" d="M591.66,-222.75C617.11,-216.84 643.32,-205.49 659,-184 697.13,-131.76 630.05,-59.25 595.13,-27.05"/>
<polygon fill="#63b8ff" stroke="#63b8ff" points="597.55,-24.51 587.77,-20.43 592.87,-29.72 597.55,-24.51"/>
</g>
<!-- Node11 -->
<g id="node11" class="node">
<title>Node11</title>
<g id="a_node11"><a xlink:title=" ">
<polygon fill="#e0e0e0" stroke="#999999" points="526,-19 416,-19 416,0 526,0 526,-19"/>
<text text-anchor="middle" x="471" y="-7" font-family="Helvetica,sans-Serif" font-size="10.00">json/FirebaseJson.h</text>
</a>
</g>
</g>
<!-- Node1&#45;&gt;Node11 -->
<g id="edge18" class="edge">
<title>Node1&#45;&gt;Node11</title>
<path fill="none" stroke="#63b8ff" d="M518.02,-219.68C510.78,-187.5 485.69,-75.86 475.43,-30.2"/>
<polygon fill="#63b8ff" stroke="#63b8ff" points="478.89,-29.65 473.28,-20.66 472.06,-31.19 478.89,-29.65"/>
</g>
<!-- Node14 -->
<g id="node14" class="node">
<title>Node14</title>
<g id="a_node14"><a xlink:title=" ">
<polygon fill="#e0e0e0" stroke="#999999" points="649.5,-184 548.5,-184 548.5,-165 649.5,-165 649.5,-184"/>
<text text-anchor="middle" x="599" y="-172" font-family="Helvetica,sans-Serif" font-size="10.00">HardwareSerial.h</text>
</a>
</g>
</g>
<!-- Node1&#45;&gt;Node14 -->
<g id="edge16" class="edge">
<title>Node1&#45;&gt;Node14</title>
<path fill="none" stroke="#63b8ff" d="M533.4,-219.51C545.16,-211.62 562.51,-199.98 576.41,-190.65"/>
<polygon fill="#63b8ff" stroke="#63b8ff" points="578.19,-193.68 584.54,-185.2 574.29,-187.87 578.19,-193.68"/>
</g>
<!-- Node15 -->
<g id="node15" class="node">
<title>Node15</title>
<g id="a_node15"><a xlink:href="DeviceInfo_8h.html" target="_top" xlink:title=" ">
<polygon fill="white" stroke="#666666" points="597,-74 519,-74 519,-55 597,-55 597,-74"/>
<text text-anchor="middle" x="558" y="-62" font-family="Helvetica,sans-Serif" font-size="10.00">DeviceInfo.h</text>
</a>
</g>
</g>
<!-- Node1&#45;&gt;Node15 -->
<g id="edge19" class="edge">
<title>Node1&#45;&gt;Node15</title>
<path fill="none" stroke="#63b8ff" d="M522.04,-219.74C527.95,-194.42 545.13,-120.72 553.42,-85.16"/>
<polygon fill="#63b8ff" stroke="#63b8ff" points="556.74,-86.31 555.6,-75.78 549.92,-84.73 556.74,-86.31"/>
</g>
<!-- Node16 -->
<g id="node16" class="node">
<title>Node16</title>
<g id="a_node16"><a xlink:title=" ">
<polygon fill="#e0e0e0" stroke="#999999" points="755.5,-184 706.5,-184 706.5,-165 755.5,-165 755.5,-184"/>
<text text-anchor="middle" x="731" y="-172" font-family="Helvetica,sans-Serif" font-size="10.00">cstdlib</text>
</a>
</g>
</g>
<!-- Node1&#45;&gt;Node16 -->
<g id="edge21" class="edge">
<title>Node1&#45;&gt;Node16</title>
<path fill="none" stroke="#63b8ff" d="M555.79,-219.51C594.75,-209.72 656.65,-194.18 695.49,-184.42"/>
<polygon fill="#63b8ff" stroke="#63b8ff" points="695.96,-187.91 704.8,-182.08 694.25,-181.12 695.96,-187.91"/>
</g>
<!-- Node3 -->
<g id="node3" class="node">
<title>Node3</title>
<g id="a_node3"><a xlink:title=" ">
<polygon fill="#e0e0e0" stroke="#999999" points="116,-129 52,-129 52,-110 116,-110 116,-129"/>
<text text-anchor="middle" x="84" y="-117" font-family="Helvetica,sans-Serif" font-size="10.00">WString.h</text>
</a>
</g>
</g>
<!-- Node2&#45;&gt;Node3 -->
<g id="edge2" class="edge">
<title>Node2&#45;&gt;Node3</title>
<path fill="none" stroke="#63b8ff" d="M251.73,-164.51C217.46,-155.52 164.62,-141.65 127.43,-131.9"/>
<polygon fill="#63b8ff" stroke="#63b8ff" points="128.45,-128.54 117.89,-129.39 126.68,-135.32 128.45,-128.54"/>
</g>
<!-- Node4 -->
<g id="node4" class="node">
<title>Node4</title>
<g id="a_node4"><a xlink:title=" ">
<polygon fill="#e0e0e0" stroke="#999999" points="258,-129 134,-129 134,-110 258,-110 258,-129"/>
<text text-anchor="middle" x="196" y="-117" font-family="Helvetica,sans-Serif" font-size="10.00">Firebase_ESP_Client.h</text>
</a>
</g>
</g>
<!-- Node2&#45;&gt;Node4 -->
<g id="edge3" class="edge">
<title>Node2&#45;&gt;Node4</title>
<path fill="none" stroke="#63b8ff" d="M270.73,-164.51C257.07,-156.47 236.8,-144.53 220.82,-135.11"/>
<polygon fill="#63b8ff" stroke="#63b8ff" points="222.74,-132.18 212.35,-130.13 219.19,-138.22 222.74,-132.18"/>
</g>
<!-- Node2&#45;&gt;Node5 -->
<g id="edge4" class="edge">
<title>Node2&#45;&gt;Node5</title>
<path fill="none" stroke="#63b8ff" d="M286.08,-164.66C286.24,-147.57 286.59,-109.61 286.81,-85.92"/>
<polygon fill="#63b8ff" stroke="#63b8ff" points="290.31,-86.01 286.9,-75.97 283.31,-85.94 290.31,-86.01"/>
</g>
<!-- Node12 -->
<g id="node12" class="node">
<title>Node12</title>
<g id="a_node12"><a xlink:href="SensorManager_8h.html" target="_top" xlink:title=" ">
<polygon fill="white" stroke="#666666" points="415.5,-129 314.5,-129 314.5,-110 415.5,-110 415.5,-129"/>
<text text-anchor="middle" x="365" y="-117" font-family="Helvetica,sans-Serif" font-size="10.00">SensorManager.h</text>
</a>
</g>
</g>
<!-- Node2&#45;&gt;Node12 -->
<g id="edge11" class="edge">
<title>Node2&#45;&gt;Node12</title>
<path fill="none" stroke="#63b8ff" d="M299.4,-164.51C311.16,-156.62 328.51,-144.98 342.41,-135.65"/>
<polygon fill="#63b8ff" stroke="#63b8ff" points="344.19,-138.68 350.54,-130.2 340.29,-132.87 344.19,-138.68"/>
</g>
<!-- Node5&#45;&gt;Node6 -->
<g id="edge5" class="edge">
<title>Node5&#45;&gt;Node6</title>
<path fill="none" stroke="#63b8ff" d="M316.43,-56.76C319.32,-56.15 322.21,-55.55 325,-55 414.45,-37.34 440.08,-36.64 533.17,-19.28"/>
<polygon fill="#63b8ff" stroke="#63b8ff" points="533.57,-22.77 542.75,-17.48 532.28,-15.89 533.57,-22.77"/>
</g>
<!-- Node7 -->
<g id="node7" class="node">
<title>Node7</title>
<g id="a_node7"><a xlink:title=" ">
<polygon fill="#e0e0e0" stroke="#999999" points="398,-19 320,-19 320,0 398,0 398,-19"/>
<text text-anchor="middle" x="359" y="-7" font-family="Helvetica,sans-Serif" font-size="10.00">MAX30105.h</text>
</a>
</g>
</g>
<!-- Node5&#45;&gt;Node7 -->
<g id="edge6" class="edge">
<title>Node5&#45;&gt;Node7</title>
<path fill="none" stroke="#63b8ff" d="M299.21,-54.51C309.83,-46.7 325.44,-35.21 338.04,-25.93"/>
<polygon fill="#63b8ff" stroke="#63b8ff" points="339.77,-29 345.75,-20.26 335.62,-23.36 339.77,-29"/>
</g>
<!-- Node8 -->
<g id="node8" class="node">
<title>Node8</title>
<g id="a_node8"><a xlink:title=" ">
<polygon fill="#e0e0e0" stroke="#999999" points="116,-19 0,-19 0,0 116,0 116,-19"/>
<text text-anchor="middle" x="58" y="-7" font-family="Helvetica,sans-Serif" font-size="10.00">Adafruit_MPU6050.h</text>
</a>
</g>
</g>
<!-- Node5&#45;&gt;Node8 -->
<g id="edge7" class="edge">
<title>Node5&#45;&gt;Node8</title>
<path fill="none" stroke="#63b8ff" d="M257.53,-56.68C219.67,-47.92 153.39,-32.58 107.67,-22"/>
<polygon fill="#63b8ff" stroke="#63b8ff" points="108.53,-18.6 97.99,-19.76 106.95,-25.42 108.53,-18.6"/>
</g>
<!-- Node9 -->
<g id="node9" class="node">
<title>Node9</title>
<g id="a_node9"><a xlink:title=" ">
<polygon fill="#e0e0e0" stroke="#999999" points="236,-19 134,-19 134,0 236,0 236,-19"/>
<text text-anchor="middle" x="185" y="-7" font-family="Helvetica,sans-Serif" font-size="10.00">Adafruit_Sensor.h</text>
</a>
</g>
</g>
<!-- Node5&#45;&gt;Node9 -->
<g id="edge8" class="edge">
<title>Node5&#45;&gt;Node9</title>
<path fill="none" stroke="#63b8ff" d="M269.7,-54.51C253.92,-46.31 230.36,-34.07 212.09,-24.58"/>
<polygon fill="#63b8ff" stroke="#63b8ff" points="213.88,-21.56 203.39,-20.06 210.65,-27.77 213.88,-21.56"/>
</g>
<!-- Node10 -->
<g id="node10" class="node">
<title>Node10</title>
<g id="a_node10"><a xlink:title=" ">
<polygon fill="#e0e0e0" stroke="#999999" points="302,-19 254,-19 254,0 302,0 302,-19"/>
<text text-anchor="middle" x="278" y="-7" font-family="Helvetica,sans-Serif" font-size="10.00">Wire.h</text>
</a>
</g>
</g>
<!-- Node5&#45;&gt;Node10 -->
<g id="edge9" class="edge">
<title>Node5&#45;&gt;Node10</title>
<path fill="none" stroke="#63b8ff" d="M285.51,-54.75C284.4,-48.19 282.83,-38.95 281.41,-30.6"/>
<polygon fill="#63b8ff" stroke="#63b8ff" points="284.9,-30.21 279.77,-20.93 278,-31.38 284.9,-30.21"/>
</g>
<!-- Node5&#45;&gt;Node11 -->
<g id="edge10" class="edge">
<title>Node5&#45;&gt;Node11</title>
<path fill="none" stroke="#63b8ff" d="M316.16,-55.1C346.6,-46.33 394.65,-32.49 429.14,-22.56"/>
<polygon fill="#63b8ff" stroke="#63b8ff" points="429.73,-26.03 438.37,-19.9 427.8,-19.3 429.73,-26.03"/>
</g>
<!-- Node12&#45;&gt;Node5 -->
<g id="edge14" class="edge">
<title>Node12&#45;&gt;Node5</title>
<path fill="none" stroke="#63b8ff" d="M351.77,-109.51C340.16,-101.62 323.03,-89.98 309.3,-80.65"/>
<polygon fill="#63b8ff" stroke="#63b8ff" points="311.53,-77.93 301.29,-75.21 307.59,-83.72 311.53,-77.93"/>
</g>
<!-- Node13 -->
<g id="node13" class="node">
<title>Node13</title>
<g id="a_node13"><a xlink:href="AbnormalCondition_8h.html" target="_top" xlink:title=" ">
<polygon fill="white" stroke="#666666" points="453.5,-74 334.5,-74 334.5,-55 453.5,-55 453.5,-74"/>
<text text-anchor="middle" x="394" y="-62" font-family="Helvetica,sans-Serif" font-size="10.00">AbnormalCondition.h</text>
</a>
</g>
</g>
<!-- Node12&#45;&gt;Node13 -->
<g id="edge12" class="edge">
<title>Node12&#45;&gt;Node13</title>
<path fill="none" stroke="#63b8ff" d="M369.79,-109.75C373.54,-102.88 378.91,-93.08 383.63,-84.45"/>
<polygon fill="#63b8ff" stroke="#63b8ff" points="386.65,-86.22 388.38,-75.77 380.51,-82.86 386.65,-86.22"/>
</g>
<!-- Node13&#45;&gt;Node6 -->
<g id="edge13" class="edge">
<title>Node13&#45;&gt;Node6</title>
<path fill="none" stroke="#63b8ff" d="M424.87,-54.51C455.03,-45.73 501.14,-32.3 534.5,-22.59"/>
<polygon fill="#63b8ff" stroke="#63b8ff" points="535.2,-26.03 543.83,-19.87 533.25,-19.31 535.2,-26.03"/>
</g>
<!-- Node15&#45;&gt;Node6 -->
<g id="edge20" class="edge">
<title>Node15&#45;&gt;Node6</title>
<path fill="none" stroke="#63b8ff" d="M560.97,-54.75C563.23,-48.11 566.41,-38.73 569.27,-30.31"/>
<polygon fill="#63b8ff" stroke="#63b8ff" points="572.57,-31.47 572.48,-20.88 565.95,-29.22 572.57,-31.47"/>
</g>
</g>
</svg>
