<?xml version="1.0" encoding="UTF-8" standalone="no"?>
<!DOCTYPE svg PUBLIC "-//W3C//DTD SVG 1.1//EN"
 "http://www.w3.org/Graphics/SVG/1.1/DTD/svg11.dtd">
<!-- Generated by graphviz version 7.0.2 (0)
 -->
<!-- Title: lib/SensorManager/SensorManager.cpp Pages: 1 -->
<svg width="616pt" height="203pt"
 viewBox="0.00 0.00 615.50 203.00" xmlns="http://www.w3.org/2000/svg" xmlns:xlink="http://www.w3.org/1999/xlink">
<g id="graph0" class="graph" transform="scale(1 1) rotate(0) translate(4 199)">
<title>lib/SensorManager/SensorManager.cpp</title>
<!-- Node1 -->
<g id="node1" class="node">
<title>Node1</title>
<g id="a_node1"><a xlink:title=" ">
<polygon fill="#999999" stroke="#666666" points="564,-195 421,-195 421,-165 564,-165 564,-195"/>
<text text-anchor="start" x="429" y="-183" font-family="Helvetica,sans-Serif" font-size="10.00">lib/SensorManager/Sensor</text>
<text text-anchor="middle" x="492.5" y="-172" font-family="Helvetica,sans-Serif" font-size="10.00">Manager.cpp</text>
</a>
</g>
</g>
<!-- Node2 -->
<g id="node2" class="node">
<title>Node2</title>
<g id="a_node2"><a xlink:href="SensorManager_8h.html" target="_top" xlink:title=" ">
<polygon fill="white" stroke="#666666" points="345,-129 244,-129 244,-110 345,-110 345,-129"/>
<text text-anchor="middle" x="294.5" y="-117" font-family="Helvetica,sans-Serif" font-size="10.00">SensorManager.h</text>
</a>
</g>
</g>
<!-- Node1&#45;&gt;Node2 -->
<g id="edge1" class="edge">
<title>Node1&#45;&gt;Node2</title>
<path fill="none" stroke="#63b8ff" d="M443.56,-164.54C410.41,-154.75 367.1,-141.95 335.71,-132.68"/>
<polygon fill="#63b8ff" stroke="#63b8ff" points="336.77,-129.34 326.18,-129.86 334.78,-136.05 336.77,-129.34"/>
</g>
<!-- Node10 -->
<g id="node10" class="node">
<title>Node10</title>
<g id="a_node10"><a xlink:title=" ">
<polygon fill="#e0e0e0" stroke="#999999" points="607.5,-19 497.5,-19 497.5,0 607.5,0 607.5,-19"/>
<text text-anchor="middle" x="552.5" y="-7" font-family="Helvetica,sans-Serif" font-size="10.00">json/FirebaseJson.h</text>
</a>
</g>
</g>
<!-- Node1&#45;&gt;Node10 -->
<g id="edge11" class="edge">
<title>Node1&#45;&gt;Node10</title>
<path fill="none" stroke="#63b8ff" d="M495.93,-164.57C499.4,-150.5 505.14,-128.57 511.5,-110 521.22,-81.61 534.88,-49.69 543.71,-29.83"/>
<polygon fill="#63b8ff" stroke="#63b8ff" points="546.86,-31.35 547.77,-20.79 540.48,-28.48 546.86,-31.35"/>
</g>
<!-- Node11 -->
<g id="node11" class="node">
<title>Node11</title>
<g id="a_node11"><a xlink:title=" ">
<polygon fill="#e0e0e0" stroke="#999999" points="570,-129 521,-129 521,-110 570,-110 570,-129"/>
<text text-anchor="middle" x="545.5" y="-117" font-family="Helvetica,sans-Serif" font-size="10.00">cstdlib</text>
</a>
</g>
</g>
<!-- Node1&#45;&gt;Node11 -->
<g id="edge12" class="edge">
<title>Node1&#45;&gt;Node11</title>
<path fill="none" stroke="#63b8ff" d="M505.6,-164.54C512.98,-156.39 522.25,-146.16 530,-137.61"/>
<polygon fill="#63b8ff" stroke="#63b8ff" points="532.5,-140.06 536.62,-130.3 527.32,-135.36 532.5,-140.06"/>
</g>
<!-- Node3 -->
<g id="node3" class="node">
<title>Node3</title>
<g id="a_node3"><a xlink:href="AbnormalCondition_8h.html" target="_top" xlink:title=" ">
<polygon fill="white" stroke="#666666" points="199,-74 80,-74 80,-55 199,-55 199,-74"/>
<text text-anchor="middle" x="139.5" y="-62" font-family="Helvetica,sans-Serif" font-size="10.00">AbnormalCondition.h</text>
</a>
</g>
</g>
<!-- Node2&#45;&gt;Node3 -->
<g id="edge2" class="edge">
<title>Node2&#45;&gt;Node3</title>
<path fill="none" stroke="#63b8ff" d="M268.21,-109.51C242.97,-100.88 204.61,-87.76 176.34,-78.1"/>
<polygon fill="#63b8ff" stroke="#63b8ff" points="177.69,-74.86 167.1,-74.94 175.43,-81.48 177.69,-74.86"/>
</g>
<!-- Node5 -->
<g id="node5" class="node">
<title>Node5</title>
<g id="a_node5"><a xlink:href="Sensor_8h.html" target="_top" xlink:title=" ">
<polygon fill="white" stroke="#666666" points="323.5,-74 265.5,-74 265.5,-55 323.5,-55 323.5,-74"/>
<text text-anchor="middle" x="294.5" y="-62" font-family="Helvetica,sans-Serif" font-size="10.00">Sensor.h</text>
</a>
</g>
</g>
<!-- Node2&#45;&gt;Node5 -->
<g id="edge4" class="edge">
<title>Node2&#45;&gt;Node5</title>
<path fill="none" stroke="#63b8ff" d="M294.5,-109.75C294.5,-103.27 294.5,-94.16 294.5,-85.9"/>
<polygon fill="#63b8ff" stroke="#63b8ff" points="298,-85.96 294.5,-75.96 291,-85.96 298,-85.96"/>
</g>
<!-- Node4 -->
<g id="node4" class="node">
<title>Node4</title>
<g id="a_node4"><a xlink:title=" ">
<polygon fill="#e0e0e0" stroke="#999999" points="63,-19 0,-19 0,0 63,0 63,-19"/>
<text text-anchor="middle" x="31.5" y="-7" font-family="Helvetica,sans-Serif" font-size="10.00">Arduino.h</text>
</a>
</g>
</g>
<!-- Node3&#45;&gt;Node4 -->
<g id="edge3" class="edge">
<title>Node3&#45;&gt;Node4</title>
<path fill="none" stroke="#63b8ff" d="M121.18,-54.51C104.32,-46.24 79.07,-33.84 59.65,-24.31"/>
<polygon fill="#63b8ff" stroke="#63b8ff" points="61.43,-21.29 50.91,-20.02 58.34,-27.57 61.43,-21.29"/>
</g>
<!-- Node5&#45;&gt;Node4 -->
<g id="edge5" class="edge">
<title>Node5&#45;&gt;Node4</title>
<path fill="none" stroke="#63b8ff" d="M265.04,-57.66C224.5,-49.61 148.96,-34.55 74.29,-19.35"/>
<polygon fill="#63b8ff" stroke="#63b8ff" points="75.26,-15.98 64.76,-17.41 73.86,-22.84 75.26,-15.98"/>
</g>
<!-- Node6 -->
<g id="node6" class="node">
<title>Node6</title>
<g id="a_node6"><a xlink:title=" ">
<polygon fill="#e0e0e0" stroke="#999999" points="159.5,-19 81.5,-19 81.5,0 159.5,0 159.5,-19"/>
<text text-anchor="middle" x="120.5" y="-7" font-family="Helvetica,sans-Serif" font-size="10.00">MAX30105.h</text>
</a>
</g>
</g>
<!-- Node5&#45;&gt;Node6 -->
<g id="edge6" class="edge">
<title>Node5&#45;&gt;Node6</title>
<path fill="none" stroke="#63b8ff" d="M265.38,-54.63C236.73,-45.9 192.77,-32.51 160.78,-22.77"/>
<polygon fill="#63b8ff" stroke="#63b8ff" points="162.04,-19.5 151.46,-19.93 160,-26.19 162.04,-19.5"/>
</g>
<!-- Node7 -->
<g id="node7" class="node">
<title>Node7</title>
<g id="a_node7"><a xlink:title=" ">
<polygon fill="#e0e0e0" stroke="#999999" points="293.5,-19 177.5,-19 177.5,0 293.5,0 293.5,-19"/>
<text text-anchor="middle" x="235.5" y="-7" font-family="Helvetica,sans-Serif" font-size="10.00">Adafruit_MPU6050.h</text>
</a>
</g>
</g>
<!-- Node5&#45;&gt;Node7 -->
<g id="edge7" class="edge">
<title>Node5&#45;&gt;Node7</title>
<path fill="none" stroke="#63b8ff" d="M284.49,-54.51C276.13,-47 264,-36.1 253.9,-27.03"/>
<polygon fill="#63b8ff" stroke="#63b8ff" points="256.26,-24.45 246.49,-20.37 251.59,-29.66 256.26,-24.45"/>
</g>
<!-- Node8 -->
<g id="node8" class="node">
<title>Node8</title>
<g id="a_node8"><a xlink:title=" ">
<polygon fill="#e0e0e0" stroke="#999999" points="413.5,-19 311.5,-19 311.5,0 413.5,0 413.5,-19"/>
<text text-anchor="middle" x="362.5" y="-7" font-family="Helvetica,sans-Serif" font-size="10.00">Adafruit_Sensor.h</text>
</a>
</g>
</g>
<!-- Node5&#45;&gt;Node8 -->
<g id="edge8" class="edge">
<title>Node5&#45;&gt;Node8</title>
<path fill="none" stroke="#63b8ff" d="M306.04,-54.51C315.96,-46.77 330.51,-35.43 342.36,-26.2"/>
<polygon fill="#63b8ff" stroke="#63b8ff" points="344.21,-29.2 349.94,-20.29 339.9,-23.68 344.21,-29.2"/>
</g>
<!-- Node9 -->
<g id="node9" class="node">
<title>Node9</title>
<g id="a_node9"><a xlink:title=" ">
<polygon fill="#e0e0e0" stroke="#999999" points="479.5,-19 431.5,-19 431.5,0 479.5,0 479.5,-19"/>
<text text-anchor="middle" x="455.5" y="-7" font-family="Helvetica,sans-Serif" font-size="10.00">Wire.h</text>
</a>
</g>
</g>
<!-- Node5&#45;&gt;Node9 -->
<g id="edge9" class="edge">
<title>Node5&#45;&gt;Node9</title>
<path fill="none" stroke="#63b8ff" d="M321.81,-54.51C349.02,-45.55 390.9,-31.77 420.52,-22.01"/>
<polygon fill="#63b8ff" stroke="#63b8ff" points="421.38,-25.42 429.78,-18.97 419.19,-18.77 421.38,-25.42"/>
</g>
<!-- Node5&#45;&gt;Node10 -->
<g id="edge10" class="edge">
<title>Node5&#45;&gt;Node10</title>
<path fill="none" stroke="#63b8ff" d="M323.59,-57.52C365.79,-48.85 444.75,-32.63 497.97,-21.7"/>
<polygon fill="#63b8ff" stroke="#63b8ff" points="498.35,-25.2 507.44,-19.76 496.94,-18.34 498.35,-25.2"/>
</g>
</g>
</svg>
