<?xml version="1.0" encoding="UTF-8" standalone="no"?>
<!DOCTYPE svg PUBLIC "-//W3C//DTD SVG 1.1//EN"
 "http://www.w3.org/Graphics/SVG/1.1/DTD/svg11.dtd">
<!-- Generated by graphviz version 7.0.2 (0)
 -->
<!-- Title: lib/Sensor/Sensor.h Pages: 1 -->
<svg width="819pt" height="214pt"
 viewBox="0.00 0.00 818.50 214.00" xmlns="http://www.w3.org/2000/svg" xmlns:xlink="http://www.w3.org/1999/xlink">
<g id="graph0" class="graph" transform="scale(1 1) rotate(0) translate(4 210)">
<title>lib/Sensor/Sensor.h</title>
<!-- Node1 -->
<g id="node1" class="node">
<title>Node1</title>
<g id="a_node1"><a xlink:title=" ">
<polygon fill="#999999" stroke="#666666" points="527,-206 418,-206 418,-187 527,-187 527,-206"/>
<text text-anchor="middle" x="472.5" y="-194" font-family="Helvetica,sans-Serif" font-size="10.00">lib/Sensor/Sensor.h</text>
</a>
</g>
</g>
<!-- Node2 -->
<g id="node2" class="node">
<title>Node2</title>
<g id="a_node2"><a xlink:href="Database_8h.html" target="_top" xlink:title=" ">
<polygon fill="white" stroke="#666666" points="294.5,-79.5 140.5,-79.5 140.5,-60.5 294.5,-60.5 294.5,-79.5"/>
<text text-anchor="middle" x="217.5" y="-67.5" font-family="Helvetica,sans-Serif" font-size="10.00">lib/Database/src/Database.h</text>
</a>
</g>
</g>
<!-- Node1&#45;&gt;Node2 -->
<g id="edge1" class="edge">
<title>Node1&#45;&gt;Node2</title>
<path fill="none" stroke="#63b8ff" d="M406.17,-188.6C370.3,-182.63 326.34,-171.54 291.5,-151 260.04,-132.46 233.96,-96.4 223.02,-79.78"/>
<polygon fill="#63b8ff" stroke="#63b8ff" points="405.6,-192.05 416.02,-190.13 406.67,-185.14 405.6,-192.05"/>
</g>
<!-- Node4 -->
<g id="node4" class="node">
<title>Node4</title>
<g id="a_node4"><a xlink:href="Send_8cpp.html" target="_top" xlink:title=" ">
<polygon fill="white" stroke="#666666" points="143,-19 0,-19 0,0 143,0 143,-19"/>
<text text-anchor="middle" x="71.5" y="-7" font-family="Helvetica,sans-Serif" font-size="10.00">lib/Database/src/Send.cpp</text>
</a>
</g>
</g>
<!-- Node1&#45;&gt;Node4 -->
<g id="edge5" class="edge">
<title>Node1&#45;&gt;Node4</title>
<path fill="none" stroke="#63b8ff" d="M406.7,-188.86C332.39,-178.32 211.45,-151.57 131.5,-85 107.51,-65.02 86.4,-34.21 76.87,-19.25"/>
<polygon fill="#63b8ff" stroke="#63b8ff" points="405.88,-192.29 416.26,-190.16 406.82,-185.35 405.88,-192.29"/>
</g>
<!-- Node5 -->
<g id="node5" class="node">
<title>Node5</title>
<g id="a_node5"><a xlink:href="main_8cpp.html" target="_top" xlink:title=" ">
<polygon fill="white" stroke="#666666" points="399,-19 320,-19 320,0 399,0 399,-19"/>
<text text-anchor="middle" x="359.5" y="-7" font-family="Helvetica,sans-Serif" font-size="10.00">src/main.cpp</text>
</a>
</g>
</g>
<!-- Node1&#45;&gt;Node5 -->
<g id="edge12" class="edge">
<title>Node1&#45;&gt;Node5</title>
<path fill="none" stroke="#63b8ff" d="M485.08,-176.98C502.97,-148.11 530.72,-91.9 503.5,-55 479.81,-22.89 433.25,-13.24 399.47,-10.69"/>
<polygon fill="#63b8ff" stroke="#63b8ff" points="482.17,-175.04 479.67,-185.33 488.04,-178.84 482.17,-175.04"/>
</g>
<!-- Node6 -->
<g id="node6" class="node">
<title>Node6</title>
<g id="a_node6"><a xlink:href="Health_8cpp.html" target="_top" xlink:title=" ">
<polygon fill="white" stroke="#666666" points="670.5,-145.5 550.5,-145.5 550.5,-126.5 670.5,-126.5 670.5,-145.5"/>
<text text-anchor="middle" x="610.5" y="-133.5" font-family="Helvetica,sans-Serif" font-size="10.00">lib/Sensor/Health.cpp</text>
</a>
</g>
</g>
<!-- Node1&#45;&gt;Node6 -->
<g id="edge6" class="edge">
<title>Node1&#45;&gt;Node6</title>
<path fill="none" stroke="#63b8ff" d="M503.96,-182.16C530.1,-171.08 566.57,-155.62 589.34,-145.97"/>
<polygon fill="#63b8ff" stroke="#63b8ff" points="502.69,-178.9 494.85,-186.02 505.43,-185.34 502.69,-178.9"/>
</g>
<!-- Node7 -->
<g id="node7" class="node">
<title>Node7</title>
<g id="a_node7"><a xlink:href="Motion_8cpp.html" target="_top" xlink:title=" ">
<polygon fill="white" stroke="#666666" points="810.5,-145.5 688.5,-145.5 688.5,-126.5 810.5,-126.5 810.5,-145.5"/>
<text text-anchor="middle" x="749.5" y="-133.5" font-family="Helvetica,sans-Serif" font-size="10.00">lib/Sensor/Motion.cpp</text>
</a>
</g>
</g>
<!-- Node1&#45;&gt;Node7 -->
<g id="edge7" class="edge">
<title>Node1&#45;&gt;Node7</title>
<path fill="none" stroke="#63b8ff" d="M526.04,-184.19C578.87,-173.04 658.56,-156.2 707.13,-145.95"/>
<polygon fill="#63b8ff" stroke="#63b8ff" points="525.41,-180.75 516.35,-186.24 526.86,-187.6 525.41,-180.75"/>
</g>
<!-- Node8 -->
<g id="node8" class="node">
<title>Node8</title>
<g id="a_node8"><a xlink:href="SensorManager_8h.html" target="_top" xlink:title=" ">
<polygon fill="white" stroke="#666666" points="444,-151 301,-151 301,-121 444,-121 444,-151"/>
<text text-anchor="start" x="309" y="-139" font-family="Helvetica,sans-Serif" font-size="10.00">lib/SensorManager/Sensor</text>
<text text-anchor="middle" x="372.5" y="-128" font-family="Helvetica,sans-Serif" font-size="10.00">Manager.h</text>
</a>
</g>
</g>
<!-- Node1&#45;&gt;Node8 -->
<g id="edge8" class="edge">
<title>Node1&#45;&gt;Node8</title>
<path fill="none" stroke="#63b8ff" d="M447.45,-180.85C432.08,-171.86 412.48,-160.39 397.18,-151.44"/>
<polygon fill="#63b8ff" stroke="#63b8ff" points="445.61,-183.82 456.01,-185.85 449.14,-177.78 445.61,-183.82"/>
</g>
<!-- Node3 -->
<g id="node3" class="node">
<title>Node3</title>
<g id="a_node3"><a xlink:href="Auth_8cpp.html" target="_top" xlink:title=" ">
<polygon fill="white" stroke="#666666" points="302,-19 161,-19 161,0 302,0 302,-19"/>
<text text-anchor="middle" x="231.5" y="-7" font-family="Helvetica,sans-Serif" font-size="10.00">lib/Database/src/Auth.cpp</text>
</a>
</g>
</g>
<!-- Node2&#45;&gt;Node3 -->
<g id="edge2" class="edge">
<title>Node2&#45;&gt;Node3</title>
<path fill="none" stroke="#63b8ff" d="M222.17,-49.49C224.63,-39.22 227.52,-27.13 229.43,-19.17"/>
<polygon fill="#63b8ff" stroke="#63b8ff" points="218.84,-48.36 219.92,-58.9 225.65,-49.99 218.84,-48.36"/>
</g>
<!-- Node2&#45;&gt;Node4 -->
<g id="edge3" class="edge">
<title>Node2&#45;&gt;Node4</title>
<path fill="none" stroke="#63b8ff" d="M184.96,-55.96C157.25,-44.86 118.19,-29.21 93.88,-19.47"/>
<polygon fill="#63b8ff" stroke="#63b8ff" points="183.34,-59.08 193.92,-59.55 185.94,-52.58 183.34,-59.08"/>
</g>
<!-- Node2&#45;&gt;Node5 -->
<g id="edge4" class="edge">
<title>Node2&#45;&gt;Node5</title>
<path fill="none" stroke="#63b8ff" d="M249.51,-55.81C276.43,-44.72 314.19,-29.17 337.73,-19.47"/>
<polygon fill="#63b8ff" stroke="#63b8ff" points="248.38,-52.49 240.47,-59.54 251.05,-58.97 248.38,-52.49"/>
</g>
<!-- Node8&#45;&gt;Node2 -->
<g id="edge9" class="edge">
<title>Node8&#45;&gt;Node2</title>
<path fill="none" stroke="#63b8ff" d="M327.4,-116.38C298.41,-104.41 262.02,-89.38 239.26,-79.99"/>
<polygon fill="#63b8ff" stroke="#63b8ff" points="325.74,-119.48 336.32,-120.06 328.41,-113.01 325.74,-119.48"/>
</g>
<!-- Node8&#45;&gt;Node5 -->
<g id="edge11" class="edge">
<title>Node8&#45;&gt;Node5</title>
<path fill="none" stroke="#63b8ff" d="M354.16,-111.42C349.03,-103.47 344.14,-94.25 341.5,-85 334.79,-61.45 347.03,-33.27 354.44,-19.28"/>
<polygon fill="#63b8ff" stroke="#63b8ff" points="351.19,-113.28 359.78,-119.48 356.94,-109.28 351.19,-113.28"/>
</g>
<!-- Node9 -->
<g id="node9" class="node">
<title>Node9</title>
<g id="a_node9"><a xlink:href="SensorManager_8cpp.html" target="_top" xlink:title=" ">
<polygon fill="white" stroke="#666666" points="494,-85 351,-85 351,-55 494,-55 494,-85"/>
<text text-anchor="start" x="359" y="-73" font-family="Helvetica,sans-Serif" font-size="10.00">lib/SensorManager/Sensor</text>
<text text-anchor="middle" x="422.5" y="-62" font-family="Helvetica,sans-Serif" font-size="10.00">Manager.cpp</text>
</a>
</g>
</g>
<!-- Node8&#45;&gt;Node9 -->
<g id="edge10" class="edge">
<title>Node8&#45;&gt;Node9</title>
<path fill="none" stroke="#63b8ff" d="M390.5,-111.96C397.5,-103 405.29,-93.03 411.43,-85.16"/>
<polygon fill="#63b8ff" stroke="#63b8ff" points="387.93,-109.57 384.53,-119.6 393.44,-113.88 387.93,-109.57"/>
</g>
</g>
</svg>
