<?xml version="1.0" encoding="UTF-8" standalone="no"?>
<!DOCTYPE svg PUBLIC "-//W3C//DTD SVG 1.1//EN"
 "http://www.w3.org/Graphics/SVG/1.1/DTD/svg11.dtd">
<!-- Generated by graphviz version 7.0.2 (0)
 -->
<!-- Title: lib/SensorManager/SensorManager.h Pages: 1 -->
<svg width="533pt" height="159pt"
 viewBox="0.00 0.00 533.00 159.00" xmlns="http://www.w3.org/2000/svg" xmlns:xlink="http://www.w3.org/1999/xlink">
<g id="graph0" class="graph" transform="scale(1 1) rotate(0) translate(4 155)">
<title>lib/SensorManager/SensorManager.h</title>
<!-- Node1 -->
<g id="node1" class="node">
<title>Node1</title>
<g id="a_node1"><a xlink:title=" ">
<polygon fill="#999999" stroke="#666666" points="425,-151 282,-151 282,-121 425,-121 425,-151"/>
<text text-anchor="start" x="290" y="-139" font-family="Helvetica,sans-Serif" font-size="10.00">lib/SensorManager/Sensor</text>
<text text-anchor="middle" x="353.5" y="-128" font-family="Helvetica,sans-Serif" font-size="10.00">Manager.h</text>
</a>
</g>
</g>
<!-- Node2 -->
<g id="node2" class="node">
<title>Node2</title>
<g id="a_node2"><a xlink:href="Database_8h.html" target="_top" xlink:title=" ">
<polygon fill="white" stroke="#666666" points="319.5,-79.5 165.5,-79.5 165.5,-60.5 319.5,-60.5 319.5,-79.5"/>
<text text-anchor="middle" x="242.5" y="-67.5" font-family="Helvetica,sans-Serif" font-size="10.00">lib/Database/src/Database.h</text>
</a>
</g>
</g>
<!-- Node1&#45;&gt;Node2 -->
<g id="edge1" class="edge">
<title>Node1&#45;&gt;Node2</title>
<path fill="none" stroke="#63b8ff" d="M318.72,-114.95C298.4,-103.23 273.74,-89.01 258.08,-79.99"/>
<polygon fill="#63b8ff" stroke="#63b8ff" points="316.87,-117.92 327.28,-119.88 320.36,-111.85 316.87,-117.92"/>
</g>
<!-- Node5 -->
<g id="node5" class="node">
<title>Node5</title>
<g id="a_node5"><a xlink:href="main_8cpp.html" target="_top" xlink:title=" ">
<polygon fill="white" stroke="#666666" points="399,-19 320,-19 320,0 399,0 399,-19"/>
<text text-anchor="middle" x="359.5" y="-7" font-family="Helvetica,sans-Serif" font-size="10.00">src/main.cpp</text>
</a>
</g>
</g>
<!-- Node1&#45;&gt;Node5 -->
<g id="edge6" class="edge">
<title>Node1&#45;&gt;Node5</title>
<path fill="none" stroke="#63b8ff" d="M354.73,-109.42C356.08,-81.38 358.18,-37.93 359.07,-19.38"/>
<polygon fill="#63b8ff" stroke="#63b8ff" points="351.25,-109.05 354.26,-119.21 358.24,-109.39 351.25,-109.05"/>
</g>
<!-- Node6 -->
<g id="node6" class="node">
<title>Node6</title>
<g id="a_node6"><a xlink:href="SensorManager_8cpp.html" target="_top" xlink:title=" ">
<polygon fill="white" stroke="#666666" points="525,-85 382,-85 382,-55 525,-55 525,-85"/>
<text text-anchor="start" x="390" y="-73" font-family="Helvetica,sans-Serif" font-size="10.00">lib/SensorManager/Sensor</text>
<text text-anchor="middle" x="453.5" y="-62" font-family="Helvetica,sans-Serif" font-size="10.00">Manager.cpp</text>
</a>
</g>
</g>
<!-- Node1&#45;&gt;Node6 -->
<g id="edge5" class="edge">
<title>Node1&#45;&gt;Node6</title>
<path fill="none" stroke="#63b8ff" d="M385.07,-114.8C399.99,-105.24 417.47,-94.06 431.02,-85.39"/>
<polygon fill="#63b8ff" stroke="#63b8ff" points="383.5,-111.64 376.97,-119.98 387.28,-117.54 383.5,-111.64"/>
</g>
<!-- Node3 -->
<g id="node3" class="node">
<title>Node3</title>
<g id="a_node3"><a xlink:href="Auth_8cpp.html" target="_top" xlink:title=" ">
<polygon fill="white" stroke="#666666" points="141,-19 0,-19 0,0 141,0 141,-19"/>
<text text-anchor="middle" x="70.5" y="-7" font-family="Helvetica,sans-Serif" font-size="10.00">lib/Database/src/Auth.cpp</text>
</a>
</g>
</g>
<!-- Node2&#45;&gt;Node3 -->
<g id="edge2" class="edge">
<title>Node2&#45;&gt;Node3</title>
<path fill="none" stroke="#63b8ff" d="M205.88,-56.55C173.16,-45.42 126.02,-29.38 96.87,-19.47"/>
<polygon fill="#63b8ff" stroke="#63b8ff" points="204.35,-59.72 214.94,-59.63 206.6,-53.09 204.35,-59.72"/>
</g>
<!-- Node4 -->
<g id="node4" class="node">
<title>Node4</title>
<g id="a_node4"><a xlink:href="Send_8cpp.html" target="_top" xlink:title=" ">
<polygon fill="white" stroke="#666666" points="302,-19 159,-19 159,0 302,0 302,-19"/>
<text text-anchor="middle" x="230.5" y="-7" font-family="Helvetica,sans-Serif" font-size="10.00">lib/Database/src/Send.cpp</text>
</a>
</g>
</g>
<!-- Node2&#45;&gt;Node4 -->
<g id="edge3" class="edge">
<title>Node2&#45;&gt;Node4</title>
<path fill="none" stroke="#63b8ff" d="M238.43,-49.16C236.34,-38.95 233.89,-27.04 232.28,-19.17"/>
<polygon fill="#63b8ff" stroke="#63b8ff" points="234.99,-49.79 240.43,-58.89 241.84,-48.39 234.99,-49.79"/>
</g>
<!-- Node2&#45;&gt;Node5 -->
<g id="edge4" class="edge">
<title>Node2&#45;&gt;Node5</title>
<path fill="none" stroke="#63b8ff" d="M270.37,-55.07C292.43,-44.03 322.6,-28.95 341.56,-19.47"/>
<polygon fill="#63b8ff" stroke="#63b8ff" points="269,-51.84 261.62,-59.44 272.13,-58.1 269,-51.84"/>
</g>
</g>
</svg>
