<?xml version="1.0" encoding="UTF-8" standalone="no"?>
<!DOCTYPE svg PUBLIC "-//W3C//DTD SVG 1.1//EN"
 "http://www.w3.org/Graphics/SVG/1.1/DTD/svg11.dtd">
<!-- Generated by graphviz version 7.0.2 (0)
 -->
<!-- Title: lib/SensorManager/SensorManager.h Pages: 1 -->
<svg width="616pt" height="148pt"
 viewBox="0.00 0.00 615.50 148.00" xmlns="http://www.w3.org/2000/svg" xmlns:xlink="http://www.w3.org/1999/xlink">
<g id="graph0" class="graph" transform="scale(1 1) rotate(0) translate(4 144)">
<title>lib/SensorManager/SensorManager.h</title>
<!-- Node1 -->
<g id="node1" class="node">
<title>Node1</title>
<g id="a_node1"><a xlink:title=" ">
<polygon fill="#999999" stroke="#666666" points="205,-140 62,-140 62,-110 205,-110 205,-140"/>
<text text-anchor="start" x="70" y="-128" font-family="Helvetica,sans-Serif" font-size="10.00">lib/SensorManager/Sensor</text>
<text text-anchor="middle" x="133.5" y="-117" font-family="Helvetica,sans-Serif" font-size="10.00">Manager.h</text>
</a>
</g>
</g>
<!-- Node2 -->
<g id="node2" class="node">
<title>Node2</title>
<g id="a_node2"><a xlink:href="AbnormalCondition_8h.html" target="_top" xlink:title=" ">
<polygon fill="white" stroke="#666666" points="140,-74 21,-74 21,-55 140,-55 140,-74"/>
<text text-anchor="middle" x="80.5" y="-62" font-family="Helvetica,sans-Serif" font-size="10.00">AbnormalCondition.h</text>
</a>
</g>
</g>
<!-- Node1&#45;&gt;Node2 -->
<g id="edge1" class="edge">
<title>Node1&#45;&gt;Node2</title>
<path fill="none" stroke="#63b8ff" d="M120.4,-109.54C113.02,-101.39 103.75,-91.16 96,-82.61"/>
<polygon fill="#63b8ff" stroke="#63b8ff" points="98.68,-80.36 89.38,-75.3 93.5,-85.06 98.68,-80.36"/>
</g>
<!-- Node4 -->
<g id="node4" class="node">
<title>Node4</title>
<g id="a_node4"><a xlink:href="Sensor_8h.html" target="_top" xlink:title=" ">
<polygon fill="white" stroke="#666666" points="264.5,-74 206.5,-74 206.5,-55 264.5,-55 264.5,-74"/>
<text text-anchor="middle" x="235.5" y="-62" font-family="Helvetica,sans-Serif" font-size="10.00">Sensor.h</text>
</a>
</g>
</g>
<!-- Node1&#45;&gt;Node4 -->
<g id="edge3" class="edge">
<title>Node1&#45;&gt;Node4</title>
<path fill="none" stroke="#63b8ff" d="M158.71,-109.54C174.49,-100.49 194.73,-88.88 210.47,-79.85"/>
<polygon fill="#63b8ff" stroke="#63b8ff" points="211.83,-83.11 218.76,-75.1 208.35,-77.04 211.83,-83.11"/>
</g>
<!-- Node3 -->
<g id="node3" class="node">
<title>Node3</title>
<g id="a_node3"><a xlink:title=" ">
<polygon fill="#e0e0e0" stroke="#999999" points="63,-19 0,-19 0,0 63,0 63,-19"/>
<text text-anchor="middle" x="31.5" y="-7" font-family="Helvetica,sans-Serif" font-size="10.00">Arduino.h</text>
</a>
</g>
</g>
<!-- Node2&#45;&gt;Node3 -->
<g id="edge2" class="edge">
<title>Node2&#45;&gt;Node3</title>
<path fill="none" stroke="#63b8ff" d="M72.41,-54.75C65.64,-47.43 55.78,-36.76 47.44,-27.74"/>
<polygon fill="#63b8ff" stroke="#63b8ff" points="50.15,-25.52 40.79,-20.55 45.01,-30.27 50.15,-25.52"/>
</g>
<!-- Node4&#45;&gt;Node3 -->
<g id="edge4" class="edge">
<title>Node4&#45;&gt;Node3</title>
<path fill="none" stroke="#63b8ff" d="M206.27,-55.91C171.7,-46.93 113.87,-31.9 74.26,-21.61"/>
<polygon fill="#63b8ff" stroke="#63b8ff" points="75.38,-18.29 64.83,-19.16 73.62,-25.06 75.38,-18.29"/>
</g>
<!-- Node5 -->
<g id="node5" class="node">
<title>Node5</title>
<g id="a_node5"><a xlink:title=" ">
<polygon fill="#e0e0e0" stroke="#999999" points="159.5,-19 81.5,-19 81.5,0 159.5,0 159.5,-19"/>
<text text-anchor="middle" x="120.5" y="-7" font-family="Helvetica,sans-Serif" font-size="10.00">MAX30105.h</text>
</a>
</g>
</g>
<!-- Node4&#45;&gt;Node5 -->
<g id="edge5" class="edge">
<title>Node4&#45;&gt;Node5</title>
<path fill="none" stroke="#63b8ff" d="M215.99,-54.51C197.87,-46.16 170.65,-33.61 149.9,-24.05"/>
<polygon fill="#63b8ff" stroke="#63b8ff" points="151.64,-21 141.09,-19.99 148.71,-27.36 151.64,-21"/>
</g>
<!-- Node6 -->
<g id="node6" class="node">
<title>Node6</title>
<g id="a_node6"><a xlink:title=" ">
<polygon fill="#e0e0e0" stroke="#999999" points="293.5,-19 177.5,-19 177.5,0 293.5,0 293.5,-19"/>
<text text-anchor="middle" x="235.5" y="-7" font-family="Helvetica,sans-Serif" font-size="10.00">Adafruit_MPU6050.h</text>
</a>
</g>
</g>
<!-- Node4&#45;&gt;Node6 -->
<g id="edge6" class="edge">
<title>Node4&#45;&gt;Node6</title>
<path fill="none" stroke="#63b8ff" d="M235.5,-54.75C235.5,-48.27 235.5,-39.16 235.5,-30.9"/>
<polygon fill="#63b8ff" stroke="#63b8ff" points="239,-30.96 235.5,-20.96 232,-30.96 239,-30.96"/>
</g>
<!-- Node7 -->
<g id="node7" class="node">
<title>Node7</title>
<g id="a_node7"><a xlink:title=" ">
<polygon fill="#e0e0e0" stroke="#999999" points="413.5,-19 311.5,-19 311.5,0 413.5,0 413.5,-19"/>
<text text-anchor="middle" x="362.5" y="-7" font-family="Helvetica,sans-Serif" font-size="10.00">Adafruit_Sensor.h</text>
</a>
</g>
</g>
<!-- Node4&#45;&gt;Node7 -->
<g id="edge7" class="edge">
<title>Node4&#45;&gt;Node7</title>
<path fill="none" stroke="#63b8ff" d="M257.04,-54.51C277.24,-46.08 307.67,-33.38 330.66,-23.79"/>
<polygon fill="#63b8ff" stroke="#63b8ff" points="332,-27.02 339.88,-19.94 329.3,-20.56 332,-27.02"/>
</g>
<!-- Node8 -->
<g id="node8" class="node">
<title>Node8</title>
<g id="a_node8"><a xlink:title=" ">
<polygon fill="#e0e0e0" stroke="#999999" points="479.5,-19 431.5,-19 431.5,0 479.5,0 479.5,-19"/>
<text text-anchor="middle" x="455.5" y="-7" font-family="Helvetica,sans-Serif" font-size="10.00">Wire.h</text>
</a>
</g>
</g>
<!-- Node4&#45;&gt;Node8 -->
<g id="edge8" class="edge">
<title>Node4&#45;&gt;Node8</title>
<path fill="none" stroke="#63b8ff" d="M264.69,-56.73C299.44,-48.63 359.48,-34.52 420.09,-19.56"/>
<polygon fill="#63b8ff" stroke="#63b8ff" points="420.67,-23.03 429.54,-17.23 418.99,-16.23 420.67,-23.03"/>
</g>
<!-- Node9 -->
<g id="node9" class="node">
<title>Node9</title>
<g id="a_node9"><a xlink:title=" ">
<polygon fill="#e0e0e0" stroke="#999999" points="607.5,-19 497.5,-19 497.5,0 607.5,0 607.5,-19"/>
<text text-anchor="middle" x="552.5" y="-7" font-family="Helvetica,sans-Serif" font-size="10.00">json/FirebaseJson.h</text>
</a>
</g>
</g>
<!-- Node4&#45;&gt;Node9 -->
<g id="edge9" class="edge">
<title>Node4&#45;&gt;Node9</title>
<path fill="none" stroke="#63b8ff" d="M264.75,-58.61C315.14,-50.19 419.42,-32.75 487.64,-21.34"/>
<polygon fill="#63b8ff" stroke="#63b8ff" points="487.9,-24.85 497.19,-19.75 486.75,-17.94 487.9,-24.85"/>
</g>
</g>
</svg>
